%TF.GenerationSoftware,KiCad,Pcbnew,10.0.1*%
%TF.CreationDate,2026-06-03T22:35:13+02:00*%
%TF.ProjectId,StatisSynthPcb,53746174-6973-4537-996e-74685063622e,rev?*%
%TF.SameCoordinates,Original*%
%TF.FileFunction,Legend,Bot*%
%TF.FilePolarity,Positive*%
%FSLAX46Y46*%
G04 Gerber Fmt 4.6, Leading zero omitted, Abs format (unit mm)*
G04 Created by KiCad (PCBNEW 10.0.1) date 2026-06-03 22:35:13*
%MOMM*%
%LPD*%
G01*
G04 APERTURE LIST*
%ADD10C,0.150000*%
%ADD11C,0.120000*%
G04 APERTURE END LIST*
D10*
X151333333Y-125684819D02*
X151333333Y-126399104D01*
X151333333Y-126399104D02*
X151380952Y-126541961D01*
X151380952Y-126541961D02*
X151476190Y-126637200D01*
X151476190Y-126637200D02*
X151619047Y-126684819D01*
X151619047Y-126684819D02*
X151714285Y-126684819D01*
X150428571Y-126018152D02*
X150428571Y-126684819D01*
X150666666Y-125637200D02*
X150904761Y-126351485D01*
X150904761Y-126351485D02*
X150285714Y-126351485D01*
X92602319Y-123679166D02*
X93316604Y-123679166D01*
X93316604Y-123679166D02*
X93459461Y-123631547D01*
X93459461Y-123631547D02*
X93554700Y-123536309D01*
X93554700Y-123536309D02*
X93602319Y-123393452D01*
X93602319Y-123393452D02*
X93602319Y-123298214D01*
X93602319Y-124679166D02*
X93602319Y-124107738D01*
X93602319Y-124393452D02*
X92602319Y-124393452D01*
X92602319Y-124393452D02*
X92745176Y-124298214D01*
X92745176Y-124298214D02*
X92840414Y-124202976D01*
X92840414Y-124202976D02*
X92888033Y-124107738D01*
X101604819Y-94166666D02*
X102319104Y-94166666D01*
X102319104Y-94166666D02*
X102461961Y-94119047D01*
X102461961Y-94119047D02*
X102557200Y-94023809D01*
X102557200Y-94023809D02*
X102604819Y-93880952D01*
X102604819Y-93880952D02*
X102604819Y-93785714D01*
X101700057Y-94595238D02*
X101652438Y-94642857D01*
X101652438Y-94642857D02*
X101604819Y-94738095D01*
X101604819Y-94738095D02*
X101604819Y-94976190D01*
X101604819Y-94976190D02*
X101652438Y-95071428D01*
X101652438Y-95071428D02*
X101700057Y-95119047D01*
X101700057Y-95119047D02*
X101795295Y-95166666D01*
X101795295Y-95166666D02*
X101890533Y-95166666D01*
X101890533Y-95166666D02*
X102033390Y-95119047D01*
X102033390Y-95119047D02*
X102604819Y-94547619D01*
X102604819Y-94547619D02*
X102604819Y-95166666D01*
%TO.C,J4*%
D11*
X149670000Y-127670000D02*
X149670000Y-129000000D01*
X149670000Y-130210000D02*
X149670000Y-130330000D01*
X151000000Y-127670000D02*
X149670000Y-127670000D01*
X152330000Y-130210000D02*
X152330000Y-130330000D01*
X152330000Y-130330000D02*
X149670000Y-130330000D01*
%TO.C,J1*%
X94090000Y-121940000D02*
X101910000Y-121940000D01*
X94090000Y-122860000D02*
X94090000Y-121940000D01*
X94090000Y-127140000D02*
X95690000Y-127140000D01*
X94090000Y-128060000D02*
X94090000Y-127140000D01*
X95690000Y-121940000D02*
X95690000Y-122860000D01*
X95690000Y-122860000D02*
X94090000Y-122860000D01*
X95690000Y-123140000D02*
X94475000Y-123140000D01*
X95690000Y-123140000D02*
X95690000Y-122860000D01*
X95690000Y-127140000D02*
X95690000Y-126860000D01*
X95690000Y-128060000D02*
X95690000Y-127140000D01*
X97550000Y-124500000D02*
X97550000Y-125500000D01*
X97550000Y-125500000D02*
X101910000Y-125500000D01*
X99650000Y-123200000D02*
X101910000Y-123200000D01*
X99650000Y-123700000D02*
X101910000Y-123700000D01*
X101910000Y-121940000D02*
X101910000Y-128060000D01*
X101910000Y-124500000D02*
X97550000Y-124500000D01*
X101910000Y-128060000D02*
X94090000Y-128060000D01*
X98050000Y-122700000D02*
X99650000Y-122700000D01*
X99650000Y-123700000D01*
X98050000Y-123700000D01*
X98050000Y-122700000D01*
X98050000Y-126300000D02*
X99650000Y-126300000D01*
X99650000Y-127300000D01*
X98050000Y-127300000D01*
X98050000Y-126300000D01*
%TO.C,J2*%
X103590000Y-94500000D02*
X103590000Y-95830000D01*
X103590000Y-95830000D02*
X104920000Y-95830000D01*
X106190000Y-93170000D02*
X106190000Y-95830000D01*
X106190000Y-93170000D02*
X118950000Y-93170000D01*
X106190000Y-95830000D02*
X118950000Y-95830000D01*
X118950000Y-93170000D02*
X118950000Y-95830000D01*
%TD*%
M02*
