%TF.GenerationSoftware,KiCad,Pcbnew,10.0.1*%
%TF.CreationDate,2026-06-03T22:35:13+02:00*%
%TF.ProjectId,StatisSynthPcb,53746174-6973-4537-996e-74685063622e,rev?*%
%TF.SameCoordinates,Original*%
%TF.FileFunction,Copper,L2,Bot*%
%TF.FilePolarity,Positive*%
%FSLAX46Y46*%
G04 Gerber Fmt 4.6, Leading zero omitted, Abs format (unit mm)*
G04 Created by KiCad (PCBNEW 10.0.1) date 2026-06-03 22:35:13*
%MOMM*%
%LPD*%
G01*
G04 APERTURE LIST*
G04 Aperture macros list*
%AMRoundRect*
0 Rectangle with rounded corners*
0 $1 Rounding radius*
0 $2 $3 $4 $5 $6 $7 $8 $9 X,Y pos of 4 corners*
0 Add a 4 corners polygon primitive as box body*
4,1,4,$2,$3,$4,$5,$6,$7,$8,$9,$2,$3,0*
0 Add four circle primitives for the rounded corners*
1,1,$1+$1,$2,$3*
1,1,$1+$1,$4,$5*
1,1,$1+$1,$6,$7*
1,1,$1+$1,$8,$9*
0 Add four rect primitives between the rounded corners*
20,1,$1+$1,$2,$3,$4,$5,0*
20,1,$1+$1,$4,$5,$6,$7,0*
20,1,$1+$1,$6,$7,$8,$9,0*
20,1,$1+$1,$8,$9,$2,$3,0*%
%AMFreePoly0*
4,1,37,0.603843,0.796157,0.639018,0.796157,0.711114,0.766294,0.766294,0.711114,0.796157,0.639018,0.796157,0.603843,0.800000,0.600000,0.800000,-0.600000,0.796157,-0.603843,0.796157,-0.639018,0.766294,-0.711114,0.711114,-0.766294,0.639018,-0.796157,0.603843,-0.796157,0.600000,-0.800000,0.000000,-0.800000,0.000000,-0.796148,-0.078414,-0.796148,-0.232228,-0.765552,-0.377117,-0.705537,
-0.507515,-0.618408,-0.618408,-0.507515,-0.705537,-0.377117,-0.765552,-0.232228,-0.796148,-0.078414,-0.796148,0.078414,-0.765552,0.232228,-0.705537,0.377117,-0.618408,0.507515,-0.507515,0.618408,-0.377117,0.705537,-0.232228,0.765552,-0.078414,0.796148,0.000000,0.796148,0.000000,0.800000,0.600000,0.800000,0.603843,0.796157,0.603843,0.796157,$1*%
%AMFreePoly1*
4,1,37,0.000000,0.796148,0.078414,0.796148,0.232228,0.765552,0.377117,0.705537,0.507515,0.618408,0.618408,0.507515,0.705537,0.377117,0.765552,0.232228,0.796148,0.078414,0.796148,-0.078414,0.765552,-0.232228,0.705537,-0.377117,0.618408,-0.507515,0.507515,-0.618408,0.377117,-0.705537,0.232228,-0.765552,0.078414,-0.796148,0.000000,-0.796148,0.000000,-0.800000,-0.600000,-0.800000,
-0.603843,-0.796157,-0.639018,-0.796157,-0.711114,-0.766294,-0.766294,-0.711114,-0.796157,-0.639018,-0.796157,-0.603843,-0.800000,-0.600000,-0.800000,0.600000,-0.796157,0.603843,-0.796157,0.639018,-0.766294,0.711114,-0.711114,0.766294,-0.639018,0.796157,-0.603843,0.796157,-0.600000,0.800000,0.000000,0.800000,0.000000,0.796148,0.000000,0.796148,$1*%
G04 Aperture macros list end*
%TA.AperFunction,ComponentPad*%
%ADD10R,1.700000X1.700000*%
%TD*%
%TA.AperFunction,ComponentPad*%
%ADD11C,1.700000*%
%TD*%
%TA.AperFunction,ComponentPad*%
%ADD12RoundRect,0.250000X-0.550000X0.950000X-0.550000X-0.950000X0.550000X-0.950000X0.550000X0.950000X0*%
%TD*%
%TA.AperFunction,ComponentPad*%
%ADD13O,1.600000X2.400000*%
%TD*%
%TA.AperFunction,ComponentPad*%
%ADD14R,1.800000X1.800000*%
%TD*%
%TA.AperFunction,ComponentPad*%
%ADD15C,1.800000*%
%TD*%
%TA.AperFunction,ComponentPad*%
%ADD16RoundRect,0.750000X0.750000X-1.250000X0.750000X1.250000X-0.750000X1.250000X-0.750000X-1.250000X0*%
%TD*%
%TA.AperFunction,ComponentPad*%
%ADD17RoundRect,0.250000X0.550000X0.550000X-0.550000X0.550000X-0.550000X-0.550000X0.550000X-0.550000X0*%
%TD*%
%TA.AperFunction,ComponentPad*%
%ADD18C,1.600000*%
%TD*%
%TA.AperFunction,ComponentPad*%
%ADD19C,2.000000*%
%TD*%
%TA.AperFunction,ComponentPad*%
%ADD20RoundRect,0.200000X0.600000X-0.600000X0.600000X0.600000X-0.600000X0.600000X-0.600000X-0.600000X0*%
%TD*%
%TA.AperFunction,ComponentPad*%
%ADD21FreePoly0,90.000000*%
%TD*%
%TA.AperFunction,ComponentPad*%
%ADD22FreePoly1,90.000000*%
%TD*%
%TA.AperFunction,ComponentPad*%
%ADD23RoundRect,0.250000X1.350000X1.350000X-1.350000X1.350000X-1.350000X-1.350000X1.350000X-1.350000X0*%
%TD*%
%TA.AperFunction,ComponentPad*%
%ADD24C,3.200000*%
%TD*%
%TA.AperFunction,ComponentPad*%
%ADD25C,3.000000*%
%TD*%
%TA.AperFunction,ComponentPad*%
%ADD26RoundRect,0.250000X-0.625000X0.350000X-0.625000X-0.350000X0.625000X-0.350000X0.625000X0.350000X0*%
%TD*%
%TA.AperFunction,ComponentPad*%
%ADD27O,1.750000X1.200000*%
%TD*%
%TA.AperFunction,ViaPad*%
%ADD28C,2.000000*%
%TD*%
%TA.AperFunction,ViaPad*%
%ADD29C,3.000000*%
%TD*%
%TA.AperFunction,ViaPad*%
%ADD30C,1.000000*%
%TD*%
%TA.AperFunction,ViaPad*%
%ADD31C,0.800000*%
%TD*%
%TA.AperFunction,ViaPad*%
%ADD32C,4.000000*%
%TD*%
%TA.AperFunction,Conductor*%
%ADD33C,1.000000*%
%TD*%
%TA.AperFunction,Conductor*%
%ADD34C,0.700000*%
%TD*%
%TA.AperFunction,Conductor*%
%ADD35C,0.500000*%
%TD*%
%TA.AperFunction,Conductor*%
%ADD36C,0.400000*%
%TD*%
%TA.AperFunction,Conductor*%
%ADD37C,0.300000*%
%TD*%
%TA.AperFunction,Conductor*%
%ADD38C,3.000000*%
%TD*%
G04 APERTURE END LIST*
D10*
%TO.P,J3,1,Pin_1_1*%
%TO.N,+3.3V*%
X133380000Y-39000000D03*
D11*
%TO.P,J3,2,Pin_2_2*%
%TO.N,GND*%
X135920000Y-39000000D03*
%TO.P,J3,3,Pin_3_3*%
%TO.N,/SCL*%
X138460000Y-39000000D03*
%TO.P,J3,4,Pin_4_4*%
%TO.N,/SDA*%
X141000000Y-39000000D03*
%TD*%
D12*
%TO.P,U3,1,CH0_1*%
%TO.N,/POT1*%
X149000000Y-85000000D03*
D13*
%TO.P,U3,2,CH1_2*%
%TO.N,/POT2*%
X146460000Y-85000000D03*
%TO.P,U3,3,CH2_3*%
%TO.N,/POT3*%
X143920000Y-85000000D03*
%TO.P,U3,4,CH3_4*%
%TO.N,/POT4*%
X141380000Y-85000000D03*
%TO.P,U3,5,CH4_5*%
%TO.N,/POT5*%
X138840000Y-85000000D03*
%TO.P,U3,6,CH5_6*%
%TO.N,unconnected-(U3-CH5-Pad6)*%
X136300000Y-85000000D03*
%TO.P,U3,7,CH6_7*%
%TO.N,unconnected-(U3-CH6-Pad7)*%
X133760000Y-85000000D03*
%TO.P,U3,8,CH7_8*%
%TO.N,/ADC_BAT*%
X131220000Y-85000000D03*
%TO.P,U3,9,DGND_9*%
%TO.N,GND*%
X131220000Y-92620000D03*
%TO.P,U3,10,~{CS}/SHDN_10*%
%TO.N,/CS*%
X133760000Y-92620000D03*
%TO.P,U3,11,Din_11*%
%TO.N,/DIN*%
X136300000Y-92620000D03*
%TO.P,U3,12,Dout_12*%
%TO.N,/DOUT*%
X138840000Y-92620000D03*
%TO.P,U3,13,CLK_13*%
%TO.N,/CLK*%
X141380000Y-92620000D03*
%TO.P,U3,14,AGND_14*%
%TO.N,GND*%
X143920000Y-92620000D03*
%TO.P,U3,15,Vref_15*%
%TO.N,+3.3V*%
X146460000Y-92620000D03*
%TO.P,U3,16,Vdd_16*%
X149000000Y-92620000D03*
%TD*%
D14*
%TO.P,RV1,1,1_1*%
%TO.N,GND*%
X98900000Y-78000000D03*
D15*
%TO.P,RV1,2,2_2*%
%TO.N,/POT1*%
X101400000Y-78000000D03*
%TO.P,RV1,3,3_3*%
%TO.N,+3.3V*%
X103900000Y-78000000D03*
D16*
%TO.P,RV1,MP*%
%TO.N,N/C*%
X97000000Y-71000000D03*
X105800000Y-71000000D03*
%TD*%
D17*
%TO.P,C1,1*%
%TO.N,/VSYS*%
X148500000Y-125000000D03*
D18*
%TO.P,C1,2*%
%TO.N,GND*%
X146000000Y-125000000D03*
%TD*%
D19*
%TO.P,SW4,1,1_1*%
%TO.N,GND*%
X121500000Y-91000000D03*
X121500000Y-84500000D03*
%TO.P,SW4,2,2_2*%
%TO.N,/BUTTON4*%
X126000000Y-91000000D03*
X126000000Y-84500000D03*
%TD*%
%TO.P,SW3,1,1_1*%
%TO.N,GND*%
X112950000Y-91000000D03*
X112950000Y-84500000D03*
%TO.P,SW3,2,2_2*%
%TO.N,/BUTTON3*%
X117450000Y-91000000D03*
X117450000Y-84500000D03*
%TD*%
D14*
%TO.P,RV5,1,1_1*%
%TO.N,GND*%
X113900000Y-57050000D03*
D15*
%TO.P,RV5,2,2_2*%
%TO.N,/POT5*%
X116400000Y-57050000D03*
%TO.P,RV5,3,3_3*%
%TO.N,+3.3V*%
X118900000Y-57050000D03*
D16*
%TO.P,RV5,MP*%
%TO.N,N/C*%
X112000000Y-50050000D03*
X120800000Y-50050000D03*
%TD*%
D18*
%TO.P,R4,1*%
%TO.N,/ADC_BAT*%
X133000000Y-124000000D03*
%TO.P,R4,2*%
%TO.N,GND*%
X140620000Y-124000000D03*
%TD*%
D20*
%TO.P,A1,1,GPIO0_1*%
%TO.N,unconnected-(A1-GPIO0-Pad1)*%
X98332500Y-117890000D03*
D18*
%TO.P,A1,2,GPIO1_2*%
%TO.N,unconnected-(A1-GPIO1-Pad2)*%
X100872500Y-117890000D03*
D21*
%TO.P,A1,3,GND_3*%
%TO.N,GND*%
X103412500Y-117890000D03*
D18*
%TO.P,A1,4,GPIO2_4*%
%TO.N,unconnected-(A1-GPIO2-Pad4)_1*%
X105952500Y-117890000D03*
%TO.P,A1,5,GPIO3_5*%
%TO.N,unconnected-(A1-GPIO3-Pad5)*%
X108492500Y-117890000D03*
%TO.P,A1,6,GPIO4_6*%
%TO.N,/SDA*%
X111032500Y-117890000D03*
%TO.P,A1,7,GPIO5_7*%
%TO.N,/SCL*%
X113572500Y-117890000D03*
D21*
%TO.P,A1,8,GND_8*%
%TO.N,GND*%
X116112500Y-117890000D03*
D18*
%TO.P,A1,9,GPIO6_9*%
%TO.N,unconnected-(A1-GPIO6-Pad9)*%
X118652500Y-117890000D03*
%TO.P,A1,10,GPIO7_10*%
%TO.N,unconnected-(A1-GPIO7-Pad10)_1*%
X121192500Y-117890000D03*
%TO.P,A1,11,GPIO8_11*%
%TO.N,unconnected-(A1-GPIO8-Pad11)_1*%
X123732500Y-117890000D03*
%TO.P,A1,12,GPIO9_12*%
%TO.N,unconnected-(A1-GPIO9-Pad12)*%
X126272500Y-117890000D03*
D21*
%TO.P,A1,13,GND_13*%
%TO.N,GND*%
X128812500Y-117890000D03*
D18*
%TO.P,A1,14,GPIO10_14*%
%TO.N,unconnected-(A1-GPIO10-Pad14)_1*%
X131352500Y-117890000D03*
%TO.P,A1,15,GPIO11_15*%
%TO.N,unconnected-(A1-GPIO11-Pad15)_1*%
X133892500Y-117890000D03*
%TO.P,A1,16,GPIO12_16*%
%TO.N,unconnected-(A1-GPIO12-Pad16)*%
X136432500Y-117890000D03*
%TO.P,A1,17,GPIO13_17*%
%TO.N,/BUTTON4*%
X138972500Y-117890000D03*
D21*
%TO.P,A1,18,GND_18*%
%TO.N,GND*%
X141512500Y-117890000D03*
D18*
%TO.P,A1,19,GPIO14_19*%
%TO.N,unconnected-(A1-GPIO14-Pad19)*%
X144052500Y-117890000D03*
%TO.P,A1,20,GPIO15_20*%
%TO.N,unconnected-(A1-GPIO15-Pad20)*%
X146592500Y-117890000D03*
%TO.P,A1,21,GPIO16_21*%
%TO.N,/DOUT*%
X146592500Y-100110000D03*
%TO.P,A1,22,GPIO17_22*%
%TO.N,/CS*%
X144052500Y-100110000D03*
D22*
%TO.P,A1,23,GND_23*%
%TO.N,GND*%
X141512500Y-100110000D03*
D18*
%TO.P,A1,24,GPIO18_24*%
%TO.N,/DIN*%
X138972500Y-100110000D03*
%TO.P,A1,25,GPIO19_25*%
%TO.N,/CLK*%
X136432500Y-100110000D03*
%TO.P,A1,26,GPIO20_26*%
%TO.N,/BUTTON1*%
X133892500Y-100110000D03*
%TO.P,A1,27,GPIO21_27*%
%TO.N,/BUTTON2*%
X131352500Y-100110000D03*
D22*
%TO.P,A1,28,GND_28*%
%TO.N,GND*%
X128812500Y-100110000D03*
D18*
%TO.P,A1,29,GPIO22_29*%
%TO.N,/BUTTON3*%
X126272500Y-100110000D03*
%TO.P,A1,30,RUN_30*%
%TO.N,unconnected-(A1-RUN-Pad30)*%
X123732500Y-100110000D03*
%TO.P,A1,31,GPIO26_ADC0_31*%
%TO.N,/DIN1*%
X121192500Y-100110000D03*
%TO.P,A1,32,GPIO27_ADC1_32*%
%TO.N,/BCK*%
X118652500Y-100110000D03*
D22*
%TO.P,A1,33,AGND_33*%
%TO.N,unconnected-(A1-AGND-Pad33)*%
X116112500Y-100110000D03*
D18*
%TO.P,A1,34,GPIO28_ADC2_34*%
%TO.N,/LRCK*%
X113572500Y-100110000D03*
%TO.P,A1,35,ADC_VREF_35*%
%TO.N,unconnected-(A1-ADC_VREF-Pad35)*%
X111032500Y-100110000D03*
%TO.P,A1,36,3V3_36*%
%TO.N,+3.3V*%
X108492500Y-100110000D03*
%TO.P,A1,37,3V3_EN_37*%
%TO.N,unconnected-(A1-3V3_EN-Pad37)*%
X105952500Y-100110000D03*
D22*
%TO.P,A1,38,GND_38*%
%TO.N,GND*%
X103412500Y-100110000D03*
D18*
%TO.P,A1,39,VSYS_39*%
%TO.N,/VSYS*%
X100872500Y-100110000D03*
%TO.P,A1,40,VBUS_40*%
%TO.N,unconnected-(A1-VBUS-Pad40)*%
X98332500Y-100110000D03*
%TD*%
%TO.P,R3,1*%
%TO.N,/ADC_BAT*%
X133000000Y-128000000D03*
%TO.P,R3,2*%
%TO.N,/VSYS*%
X140620000Y-128000000D03*
%TD*%
D23*
%TO.P,D1,1,K_1*%
%TO.N,/VSYS*%
X149000000Y-133000000D03*
D24*
%TO.P,D1,2,A_2*%
%TO.N,Net-(D1-A)*%
X133760000Y-133000000D03*
%TD*%
D14*
%TO.P,RV2,1,1_1*%
%TO.N,GND*%
X121000000Y-78000000D03*
D15*
%TO.P,RV2,2,2_2*%
%TO.N,/POT2*%
X123500000Y-78000000D03*
%TO.P,RV2,3,3_3*%
%TO.N,+3.3V*%
X126000000Y-78000000D03*
D16*
%TO.P,RV2,MP*%
%TO.N,N/C*%
X119100000Y-71000000D03*
X127900000Y-71000000D03*
%TD*%
D25*
%TO.P,F2,1*%
%TO.N,Net-(J1-Pin_2)*%
X106500000Y-131000000D03*
%TO.P,F2,2*%
%TO.N,Net-(D1-A)*%
X129000000Y-131000000D03*
%TD*%
D19*
%TO.P,SW1,1,1_1*%
%TO.N,GND*%
X95850000Y-91000000D03*
X95850000Y-84500000D03*
%TO.P,SW1,2,2_2*%
%TO.N,/BUTTON1*%
X100350000Y-91000000D03*
X100350000Y-84500000D03*
%TD*%
%TO.P,SW2,1,1_1*%
%TO.N,GND*%
X104400000Y-91000000D03*
X104400000Y-84500000D03*
%TO.P,SW2,2,2_2*%
%TO.N,/BUTTON2*%
X108900000Y-91000000D03*
X108900000Y-84500000D03*
%TD*%
D14*
%TO.P,RV3,1,1_1*%
%TO.N,GND*%
X141000000Y-78000000D03*
D15*
%TO.P,RV3,2,2_2*%
%TO.N,/POT3*%
X143500000Y-78000000D03*
%TO.P,RV3,3,3_3*%
%TO.N,+3.3V*%
X146000000Y-78000000D03*
D16*
%TO.P,RV3,MP*%
%TO.N,N/C*%
X139100000Y-71000000D03*
X147900000Y-71000000D03*
%TD*%
D14*
%TO.P,RV4,1,1_1*%
%TO.N,GND*%
X98900000Y-57000000D03*
D15*
%TO.P,RV4,2,2_2*%
%TO.N,/POT4*%
X101400000Y-57000000D03*
%TO.P,RV4,3,3_3*%
%TO.N,+3.3V*%
X103900000Y-57000000D03*
D16*
%TO.P,RV4,MP*%
%TO.N,N/C*%
X97000000Y-50000000D03*
X105800000Y-50000000D03*
%TD*%
D10*
%TO.P,J4,1,Pin_1_1*%
%TO.N,/VSYS*%
X151000000Y-129000000D03*
%TD*%
D26*
%TO.P,J1,1,Pin_1_1*%
%TO.N,GND*%
X95550000Y-124000000D03*
D27*
%TO.P,J1,2,Pin_2_2*%
%TO.N,Net-(J1-Pin_2)*%
X95550000Y-126000000D03*
%TD*%
D10*
%TO.P,J2,1,Pin_1_1*%
%TO.N,GND*%
X104920000Y-94500000D03*
D11*
%TO.P,J2,2,Pin_2_2*%
%TO.N,/BCK*%
X107460000Y-94500000D03*
%TO.P,J2,3,Pin_3_3*%
%TO.N,/DIN1*%
X110000000Y-94500000D03*
%TO.P,J2,4,Pin_4_4*%
%TO.N,/LRCK*%
X112540000Y-94500000D03*
%TO.P,J2,5,Pin_5_5*%
%TO.N,GND*%
X115080000Y-94500000D03*
%TO.P,J2,6,Pin_6_6*%
%TO.N,+3.3V*%
X117620000Y-94500000D03*
%TD*%
D28*
%TO.N,+3.3V*%
X124000000Y-81000000D03*
D29*
%TO.N,GND*%
X99200000Y-67000000D03*
D30*
X149000000Y-95000000D03*
%TO.N,/SDA*%
X130000000Y-39000000D03*
%TO.N,/POT2*%
X146000000Y-81800000D03*
D31*
X130000000Y-82000000D03*
D30*
%TO.N,/ADC_BAT*%
X150000000Y-118000000D03*
X152000000Y-92000000D03*
D32*
%TO.N,/VSYS*%
X137000000Y-113000000D03*
%TD*%
%TO.N,+3.3V*%
D33*
X103900000Y-57000000D02*
X115000000Y-68100000D01*
X106900000Y-81000000D02*
X118000000Y-81000000D01*
X124000000Y-81000000D02*
X129000000Y-81000000D01*
X118900000Y-64100000D02*
X115000000Y-68000000D01*
X144000000Y-80000000D02*
X146000000Y-78000000D01*
X115000000Y-68000000D02*
X115000000Y-68100000D01*
X115000000Y-68100000D02*
X115000000Y-78000000D01*
X103900000Y-78000000D02*
X106900000Y-81000000D01*
X118000000Y-81000000D02*
X124000000Y-81000000D01*
X115000000Y-78000000D02*
X118000000Y-81000000D01*
X129000000Y-81000000D02*
X130000000Y-80000000D01*
X126000000Y-78000000D02*
X129000000Y-81000000D01*
X130000000Y-80000000D02*
X144000000Y-80000000D01*
X118900000Y-57050000D02*
X118900000Y-64100000D01*
%TO.N,GND*%
D34*
X152000000Y-95000000D02*
X154000000Y-93000000D01*
D33*
X141000000Y-78000000D02*
X128000000Y-65000000D01*
X122000000Y-77000000D02*
X122000000Y-65000000D01*
X141000000Y-78000000D02*
X138000000Y-75000000D01*
D34*
X154000000Y-93000000D02*
X154000000Y-57080000D01*
D35*
X149000000Y-95000000D02*
X146300000Y-95000000D01*
D34*
X149000000Y-95000000D02*
X152000000Y-95000000D01*
D33*
X138000000Y-75000000D02*
X124000000Y-75000000D01*
X121000000Y-78000000D02*
X122000000Y-77000000D01*
X124000000Y-75000000D02*
X121000000Y-78000000D01*
D34*
X154000000Y-57080000D02*
X135920000Y-39000000D01*
D33*
X128000000Y-65000000D02*
X122000000Y-65000000D01*
D35*
X146300000Y-95000000D02*
X143920000Y-92620000D01*
%TO.N,/SDA*%
D34*
X139000000Y-37000000D02*
X132000000Y-37000000D01*
X132000000Y-37000000D02*
X130000000Y-39000000D01*
X141000000Y-39000000D02*
X139000000Y-37000000D01*
%TO.N,/POT1*%
D35*
X149000000Y-85000000D02*
X147000000Y-83000000D01*
X106000000Y-83000000D02*
X101400000Y-78400000D01*
X147000000Y-83000000D02*
X106000000Y-83000000D01*
X101400000Y-78400000D02*
X101400000Y-78000000D01*
%TO.N,/POT2*%
D36*
X145800000Y-82000000D02*
X130000000Y-82000000D01*
X146000000Y-81800000D02*
X145800000Y-82000000D01*
%TO.N,/ADC_BAT*%
D37*
X134220000Y-88000000D02*
X131220000Y-85000000D01*
D35*
X133000000Y-124000000D02*
X134250000Y-122750000D01*
D37*
X148000000Y-88000000D02*
X134220000Y-88000000D01*
D35*
X145250000Y-122750000D02*
X150000000Y-118000000D01*
D37*
X152000000Y-92000000D02*
X148000000Y-88000000D01*
D35*
X134250000Y-122750000D02*
X145250000Y-122750000D01*
%TO.N,/CS*%
D37*
X140095000Y-98955000D02*
X133760000Y-92620000D01*
X142897500Y-98955000D02*
X140095000Y-98955000D01*
X144052500Y-100110000D02*
X142897500Y-98955000D01*
%TO.N,/DIN*%
X133353654Y-91000000D02*
X134680000Y-91000000D01*
X138972500Y-100110000D02*
X132610000Y-93747500D01*
X132610000Y-91743654D02*
X133353654Y-91000000D01*
X132610000Y-93747500D02*
X132610000Y-91743654D01*
X134680000Y-91000000D02*
X136300000Y-92620000D01*
%TO.N,/DOUT*%
X139102500Y-92620000D02*
X138840000Y-92620000D01*
X146592500Y-100110000D02*
X139102500Y-92620000D01*
%TO.N,/CLK*%
X138760000Y-90000000D02*
X141380000Y-92620000D01*
X136432500Y-100110000D02*
X130000000Y-93677500D01*
X130000000Y-91813654D02*
X130000000Y-93677500D01*
X131813654Y-90000000D02*
X130000000Y-91813654D01*
X138760000Y-90000000D02*
X131813654Y-90000000D01*
%TO.N,/VSYS*%
D38*
X151000000Y-127500000D02*
X148500000Y-125000000D01*
X151000000Y-129000000D02*
X151000000Y-131000000D01*
X151000000Y-113000000D02*
X156000000Y-118000000D01*
X151000000Y-129000000D02*
X151000000Y-127500000D01*
X156000000Y-118000000D02*
X149000000Y-125000000D01*
X151000000Y-131000000D02*
X149000000Y-133000000D01*
X149000000Y-125000000D02*
X149000000Y-133000000D01*
X137000000Y-113000000D02*
X151000000Y-113000000D01*
%TO.N,/BUTTON4*%
D37*
X126000000Y-91000000D02*
X126408846Y-91000000D01*
X126408846Y-91000000D02*
X135042500Y-99633654D01*
X134650000Y-113973402D02*
X134650000Y-110350000D01*
X138972500Y-117890000D02*
X138566598Y-117890000D01*
X135042500Y-99633654D02*
X135042500Y-109957500D01*
X134650000Y-110350000D02*
X135042500Y-109957500D01*
X138566598Y-117890000D02*
X134650000Y-113973402D01*
%TO.N,/BUTTON3*%
X126272500Y-100110000D02*
X117450000Y-91287500D01*
X117450000Y-91287500D02*
X117450000Y-91000000D01*
%TO.N,/BUTTON1*%
D35*
X97000000Y-103000000D02*
X96000000Y-102000000D01*
X131002500Y-103000000D02*
X97000000Y-103000000D01*
X133892500Y-100110000D02*
X131002500Y-103000000D01*
X96000000Y-102000000D02*
X96000000Y-95350000D01*
X96000000Y-95350000D02*
X100350000Y-91000000D01*
%TO.N,/BUTTON2*%
D37*
X123592500Y-92350000D02*
X131352500Y-100110000D01*
X110900000Y-89000000D02*
X118179594Y-89000000D01*
X122059189Y-92350000D02*
X123592500Y-92350000D01*
X120150000Y-90970406D02*
X120150000Y-91559189D01*
X121529594Y-92350000D02*
X122059189Y-92350000D01*
X108900000Y-91000000D02*
X110900000Y-89000000D01*
X120150000Y-91559189D02*
X120940811Y-92350000D01*
X118179594Y-89000000D02*
X120150000Y-90970406D01*
X120940811Y-92350000D02*
X121529594Y-92350000D01*
%TO.N,/DIN1*%
X118082500Y-97000000D02*
X112500000Y-97000000D01*
X121192500Y-100110000D02*
X118082500Y-97000000D01*
X112500000Y-97000000D02*
X110000000Y-94500000D01*
%TO.N,/BCK*%
X118652500Y-100110000D02*
X116542500Y-98000000D01*
X110960000Y-98000000D02*
X107460000Y-94500000D01*
X116542500Y-98000000D02*
X110960000Y-98000000D01*
%TO.N,/LRCK*%
X111340000Y-93300000D02*
X106962943Y-93300000D01*
X106120000Y-94857057D02*
X110222943Y-98960000D01*
X106120000Y-94142943D02*
X106120000Y-94857057D01*
X110222943Y-98960000D02*
X112422500Y-98960000D01*
X106962943Y-93300000D02*
X106120000Y-94142943D01*
X112540000Y-94500000D02*
X111340000Y-93300000D01*
X112422500Y-98960000D02*
X113572500Y-100110000D01*
%TD*%
M02*
