%TF.GenerationSoftware,KiCad,Pcbnew,10.0.1*%
%TF.CreationDate,2026-06-03T22:35:13+02:00*%
%TF.ProjectId,StatisSynthPcb,53746174-6973-4537-996e-74685063622e,rev?*%
%TF.SameCoordinates,Original*%
%TF.FileFunction,Legend,Top*%
%TF.FilePolarity,Positive*%
%FSLAX46Y46*%
G04 Gerber Fmt 4.6, Leading zero omitted, Abs format (unit mm)*
G04 Created by KiCad (PCBNEW 10.0.1) date 2026-06-03 22:35:13*
%MOMM*%
%LPD*%
G01*
G04 APERTURE LIST*
%ADD10C,0.100000*%
%ADD11C,0.150000*%
%ADD12C,0.120000*%
G04 APERTURE END LIST*
D10*
X126000000Y-40000000D02*
X153000000Y-40000000D01*
X153000000Y-64880000D01*
X126000000Y-64880000D01*
X126000000Y-40000000D01*
D11*
X130064819Y-39333333D02*
X130779104Y-39333333D01*
X130779104Y-39333333D02*
X130921961Y-39380952D01*
X130921961Y-39380952D02*
X131017200Y-39476190D01*
X131017200Y-39476190D02*
X131064819Y-39619047D01*
X131064819Y-39619047D02*
X131064819Y-39714285D01*
X130064819Y-38952380D02*
X130064819Y-38333333D01*
X130064819Y-38333333D02*
X130445771Y-38666666D01*
X130445771Y-38666666D02*
X130445771Y-38523809D01*
X130445771Y-38523809D02*
X130493390Y-38428571D01*
X130493390Y-38428571D02*
X130541009Y-38380952D01*
X130541009Y-38380952D02*
X130636247Y-38333333D01*
X130636247Y-38333333D02*
X130874342Y-38333333D01*
X130874342Y-38333333D02*
X130969580Y-38380952D01*
X130969580Y-38380952D02*
X131017200Y-38428571D01*
X131017200Y-38428571D02*
X131064819Y-38523809D01*
X131064819Y-38523809D02*
X131064819Y-38809523D01*
X131064819Y-38809523D02*
X131017200Y-38904761D01*
X131017200Y-38904761D02*
X130969580Y-38952380D01*
X153334819Y-89571904D02*
X154144342Y-89571904D01*
X154144342Y-89571904D02*
X154239580Y-89524285D01*
X154239580Y-89524285D02*
X154287200Y-89476666D01*
X154287200Y-89476666D02*
X154334819Y-89381428D01*
X154334819Y-89381428D02*
X154334819Y-89190952D01*
X154334819Y-89190952D02*
X154287200Y-89095714D01*
X154287200Y-89095714D02*
X154239580Y-89048095D01*
X154239580Y-89048095D02*
X154144342Y-89000476D01*
X154144342Y-89000476D02*
X153334819Y-89000476D01*
X153334819Y-88619523D02*
X153334819Y-88000476D01*
X153334819Y-88000476D02*
X153715771Y-88333809D01*
X153715771Y-88333809D02*
X153715771Y-88190952D01*
X153715771Y-88190952D02*
X153763390Y-88095714D01*
X153763390Y-88095714D02*
X153811009Y-88048095D01*
X153811009Y-88048095D02*
X153906247Y-88000476D01*
X153906247Y-88000476D02*
X154144342Y-88000476D01*
X154144342Y-88000476D02*
X154239580Y-88048095D01*
X154239580Y-88048095D02*
X154287200Y-88095714D01*
X154287200Y-88095714D02*
X154334819Y-88190952D01*
X154334819Y-88190952D02*
X154334819Y-88476666D01*
X154334819Y-88476666D02*
X154287200Y-88571904D01*
X154287200Y-88571904D02*
X154239580Y-88619523D01*
X94204819Y-72545238D02*
X93728628Y-72878571D01*
X94204819Y-73116666D02*
X93204819Y-73116666D01*
X93204819Y-73116666D02*
X93204819Y-72735714D01*
X93204819Y-72735714D02*
X93252438Y-72640476D01*
X93252438Y-72640476D02*
X93300057Y-72592857D01*
X93300057Y-72592857D02*
X93395295Y-72545238D01*
X93395295Y-72545238D02*
X93538152Y-72545238D01*
X93538152Y-72545238D02*
X93633390Y-72592857D01*
X93633390Y-72592857D02*
X93681009Y-72640476D01*
X93681009Y-72640476D02*
X93728628Y-72735714D01*
X93728628Y-72735714D02*
X93728628Y-73116666D01*
X93204819Y-72259523D02*
X94204819Y-71926190D01*
X94204819Y-71926190D02*
X93204819Y-71592857D01*
X94204819Y-70735714D02*
X94204819Y-71307142D01*
X94204819Y-71021428D02*
X93204819Y-71021428D01*
X93204819Y-71021428D02*
X93347676Y-71116666D01*
X93347676Y-71116666D02*
X93442914Y-71211904D01*
X93442914Y-71211904D02*
X93490533Y-71307142D01*
X147083333Y-129759580D02*
X147035714Y-129807200D01*
X147035714Y-129807200D02*
X146892857Y-129854819D01*
X146892857Y-129854819D02*
X146797619Y-129854819D01*
X146797619Y-129854819D02*
X146654762Y-129807200D01*
X146654762Y-129807200D02*
X146559524Y-129711961D01*
X146559524Y-129711961D02*
X146511905Y-129616723D01*
X146511905Y-129616723D02*
X146464286Y-129426247D01*
X146464286Y-129426247D02*
X146464286Y-129283390D01*
X146464286Y-129283390D02*
X146511905Y-129092914D01*
X146511905Y-129092914D02*
X146559524Y-128997676D01*
X146559524Y-128997676D02*
X146654762Y-128902438D01*
X146654762Y-128902438D02*
X146797619Y-128854819D01*
X146797619Y-128854819D02*
X146892857Y-128854819D01*
X146892857Y-128854819D02*
X147035714Y-128902438D01*
X147035714Y-128902438D02*
X147083333Y-128950057D01*
X148035714Y-129854819D02*
X147464286Y-129854819D01*
X147750000Y-129854819D02*
X147750000Y-128854819D01*
X147750000Y-128854819D02*
X147654762Y-128997676D01*
X147654762Y-128997676D02*
X147559524Y-129092914D01*
X147559524Y-129092914D02*
X147464286Y-129140533D01*
X119907200Y-89083332D02*
X119954819Y-88940475D01*
X119954819Y-88940475D02*
X119954819Y-88702380D01*
X119954819Y-88702380D02*
X119907200Y-88607142D01*
X119907200Y-88607142D02*
X119859580Y-88559523D01*
X119859580Y-88559523D02*
X119764342Y-88511904D01*
X119764342Y-88511904D02*
X119669104Y-88511904D01*
X119669104Y-88511904D02*
X119573866Y-88559523D01*
X119573866Y-88559523D02*
X119526247Y-88607142D01*
X119526247Y-88607142D02*
X119478628Y-88702380D01*
X119478628Y-88702380D02*
X119431009Y-88892856D01*
X119431009Y-88892856D02*
X119383390Y-88988094D01*
X119383390Y-88988094D02*
X119335771Y-89035713D01*
X119335771Y-89035713D02*
X119240533Y-89083332D01*
X119240533Y-89083332D02*
X119145295Y-89083332D01*
X119145295Y-89083332D02*
X119050057Y-89035713D01*
X119050057Y-89035713D02*
X119002438Y-88988094D01*
X119002438Y-88988094D02*
X118954819Y-88892856D01*
X118954819Y-88892856D02*
X118954819Y-88654761D01*
X118954819Y-88654761D02*
X119002438Y-88511904D01*
X118954819Y-88178570D02*
X119954819Y-87940475D01*
X119954819Y-87940475D02*
X119240533Y-87749999D01*
X119240533Y-87749999D02*
X119954819Y-87559523D01*
X119954819Y-87559523D02*
X118954819Y-87321428D01*
X119288152Y-86511904D02*
X119954819Y-86511904D01*
X118907200Y-86749999D02*
X119621485Y-86988094D01*
X119621485Y-86988094D02*
X119621485Y-86369047D01*
X111357200Y-89083332D02*
X111404819Y-88940475D01*
X111404819Y-88940475D02*
X111404819Y-88702380D01*
X111404819Y-88702380D02*
X111357200Y-88607142D01*
X111357200Y-88607142D02*
X111309580Y-88559523D01*
X111309580Y-88559523D02*
X111214342Y-88511904D01*
X111214342Y-88511904D02*
X111119104Y-88511904D01*
X111119104Y-88511904D02*
X111023866Y-88559523D01*
X111023866Y-88559523D02*
X110976247Y-88607142D01*
X110976247Y-88607142D02*
X110928628Y-88702380D01*
X110928628Y-88702380D02*
X110881009Y-88892856D01*
X110881009Y-88892856D02*
X110833390Y-88988094D01*
X110833390Y-88988094D02*
X110785771Y-89035713D01*
X110785771Y-89035713D02*
X110690533Y-89083332D01*
X110690533Y-89083332D02*
X110595295Y-89083332D01*
X110595295Y-89083332D02*
X110500057Y-89035713D01*
X110500057Y-89035713D02*
X110452438Y-88988094D01*
X110452438Y-88988094D02*
X110404819Y-88892856D01*
X110404819Y-88892856D02*
X110404819Y-88654761D01*
X110404819Y-88654761D02*
X110452438Y-88511904D01*
X110404819Y-88178570D02*
X111404819Y-87940475D01*
X111404819Y-87940475D02*
X110690533Y-87749999D01*
X110690533Y-87749999D02*
X111404819Y-87559523D01*
X111404819Y-87559523D02*
X110404819Y-87321428D01*
X110404819Y-87035713D02*
X110404819Y-86416666D01*
X110404819Y-86416666D02*
X110785771Y-86749999D01*
X110785771Y-86749999D02*
X110785771Y-86607142D01*
X110785771Y-86607142D02*
X110833390Y-86511904D01*
X110833390Y-86511904D02*
X110881009Y-86464285D01*
X110881009Y-86464285D02*
X110976247Y-86416666D01*
X110976247Y-86416666D02*
X111214342Y-86416666D01*
X111214342Y-86416666D02*
X111309580Y-86464285D01*
X111309580Y-86464285D02*
X111357200Y-86511904D01*
X111357200Y-86511904D02*
X111404819Y-86607142D01*
X111404819Y-86607142D02*
X111404819Y-86892856D01*
X111404819Y-86892856D02*
X111357200Y-86988094D01*
X111357200Y-86988094D02*
X111309580Y-87035713D01*
X109204819Y-51595238D02*
X108728628Y-51928571D01*
X109204819Y-52166666D02*
X108204819Y-52166666D01*
X108204819Y-52166666D02*
X108204819Y-51785714D01*
X108204819Y-51785714D02*
X108252438Y-51690476D01*
X108252438Y-51690476D02*
X108300057Y-51642857D01*
X108300057Y-51642857D02*
X108395295Y-51595238D01*
X108395295Y-51595238D02*
X108538152Y-51595238D01*
X108538152Y-51595238D02*
X108633390Y-51642857D01*
X108633390Y-51642857D02*
X108681009Y-51690476D01*
X108681009Y-51690476D02*
X108728628Y-51785714D01*
X108728628Y-51785714D02*
X108728628Y-52166666D01*
X108204819Y-51309523D02*
X109204819Y-50976190D01*
X109204819Y-50976190D02*
X108204819Y-50642857D01*
X108204819Y-49833333D02*
X108204819Y-50309523D01*
X108204819Y-50309523D02*
X108681009Y-50357142D01*
X108681009Y-50357142D02*
X108633390Y-50309523D01*
X108633390Y-50309523D02*
X108585771Y-50214285D01*
X108585771Y-50214285D02*
X108585771Y-49976190D01*
X108585771Y-49976190D02*
X108633390Y-49880952D01*
X108633390Y-49880952D02*
X108681009Y-49833333D01*
X108681009Y-49833333D02*
X108776247Y-49785714D01*
X108776247Y-49785714D02*
X109014342Y-49785714D01*
X109014342Y-49785714D02*
X109109580Y-49833333D01*
X109109580Y-49833333D02*
X109157200Y-49880952D01*
X109157200Y-49880952D02*
X109204819Y-49976190D01*
X109204819Y-49976190D02*
X109204819Y-50214285D01*
X109204819Y-50214285D02*
X109157200Y-50309523D01*
X109157200Y-50309523D02*
X109109580Y-50357142D01*
X136643333Y-122084819D02*
X136310000Y-121608628D01*
X136071905Y-122084819D02*
X136071905Y-121084819D01*
X136071905Y-121084819D02*
X136452857Y-121084819D01*
X136452857Y-121084819D02*
X136548095Y-121132438D01*
X136548095Y-121132438D02*
X136595714Y-121180057D01*
X136595714Y-121180057D02*
X136643333Y-121275295D01*
X136643333Y-121275295D02*
X136643333Y-121418152D01*
X136643333Y-121418152D02*
X136595714Y-121513390D01*
X136595714Y-121513390D02*
X136548095Y-121561009D01*
X136548095Y-121561009D02*
X136452857Y-121608628D01*
X136452857Y-121608628D02*
X136071905Y-121608628D01*
X137500476Y-121418152D02*
X137500476Y-122084819D01*
X137262381Y-121037200D02*
X137024286Y-121751485D01*
X137024286Y-121751485D02*
X137643333Y-121751485D01*
X147396604Y-96963339D02*
X147396604Y-96487149D01*
X147682319Y-97058577D02*
X146682319Y-96725244D01*
X146682319Y-96725244D02*
X147682319Y-96391911D01*
X147682319Y-95534768D02*
X147682319Y-96106196D01*
X147682319Y-95820482D02*
X146682319Y-95820482D01*
X146682319Y-95820482D02*
X146825176Y-95915720D01*
X146825176Y-95915720D02*
X146920414Y-96010958D01*
X146920414Y-96010958D02*
X146968033Y-96106196D01*
X136643333Y-126084819D02*
X136310000Y-125608628D01*
X136071905Y-126084819D02*
X136071905Y-125084819D01*
X136071905Y-125084819D02*
X136452857Y-125084819D01*
X136452857Y-125084819D02*
X136548095Y-125132438D01*
X136548095Y-125132438D02*
X136595714Y-125180057D01*
X136595714Y-125180057D02*
X136643333Y-125275295D01*
X136643333Y-125275295D02*
X136643333Y-125418152D01*
X136643333Y-125418152D02*
X136595714Y-125513390D01*
X136595714Y-125513390D02*
X136548095Y-125561009D01*
X136548095Y-125561009D02*
X136452857Y-125608628D01*
X136452857Y-125608628D02*
X136071905Y-125608628D01*
X136976667Y-125084819D02*
X137595714Y-125084819D01*
X137595714Y-125084819D02*
X137262381Y-125465771D01*
X137262381Y-125465771D02*
X137405238Y-125465771D01*
X137405238Y-125465771D02*
X137500476Y-125513390D01*
X137500476Y-125513390D02*
X137548095Y-125561009D01*
X137548095Y-125561009D02*
X137595714Y-125656247D01*
X137595714Y-125656247D02*
X137595714Y-125894342D01*
X137595714Y-125894342D02*
X137548095Y-125989580D01*
X137548095Y-125989580D02*
X137500476Y-126037200D01*
X137500476Y-126037200D02*
X137405238Y-126084819D01*
X137405238Y-126084819D02*
X137119524Y-126084819D01*
X137119524Y-126084819D02*
X137024286Y-126037200D01*
X137024286Y-126037200D02*
X136976667Y-125989580D01*
X140641905Y-137174819D02*
X140641905Y-136174819D01*
X140641905Y-136174819D02*
X140880000Y-136174819D01*
X140880000Y-136174819D02*
X141022857Y-136222438D01*
X141022857Y-136222438D02*
X141118095Y-136317676D01*
X141118095Y-136317676D02*
X141165714Y-136412914D01*
X141165714Y-136412914D02*
X141213333Y-136603390D01*
X141213333Y-136603390D02*
X141213333Y-136746247D01*
X141213333Y-136746247D02*
X141165714Y-136936723D01*
X141165714Y-136936723D02*
X141118095Y-137031961D01*
X141118095Y-137031961D02*
X141022857Y-137127200D01*
X141022857Y-137127200D02*
X140880000Y-137174819D01*
X140880000Y-137174819D02*
X140641905Y-137174819D01*
X142165714Y-137174819D02*
X141594286Y-137174819D01*
X141880000Y-137174819D02*
X141880000Y-136174819D01*
X141880000Y-136174819D02*
X141784762Y-136317676D01*
X141784762Y-136317676D02*
X141689524Y-136412914D01*
X141689524Y-136412914D02*
X141594286Y-136460533D01*
X148738095Y-136054819D02*
X148738095Y-135054819D01*
X149309523Y-136054819D02*
X148880952Y-135483390D01*
X149309523Y-135054819D02*
X148738095Y-135626247D01*
X116304819Y-72545238D02*
X115828628Y-72878571D01*
X116304819Y-73116666D02*
X115304819Y-73116666D01*
X115304819Y-73116666D02*
X115304819Y-72735714D01*
X115304819Y-72735714D02*
X115352438Y-72640476D01*
X115352438Y-72640476D02*
X115400057Y-72592857D01*
X115400057Y-72592857D02*
X115495295Y-72545238D01*
X115495295Y-72545238D02*
X115638152Y-72545238D01*
X115638152Y-72545238D02*
X115733390Y-72592857D01*
X115733390Y-72592857D02*
X115781009Y-72640476D01*
X115781009Y-72640476D02*
X115828628Y-72735714D01*
X115828628Y-72735714D02*
X115828628Y-73116666D01*
X115304819Y-72259523D02*
X116304819Y-71926190D01*
X116304819Y-71926190D02*
X115304819Y-71592857D01*
X115400057Y-71307142D02*
X115352438Y-71259523D01*
X115352438Y-71259523D02*
X115304819Y-71164285D01*
X115304819Y-71164285D02*
X115304819Y-70926190D01*
X115304819Y-70926190D02*
X115352438Y-70830952D01*
X115352438Y-70830952D02*
X115400057Y-70783333D01*
X115400057Y-70783333D02*
X115495295Y-70735714D01*
X115495295Y-70735714D02*
X115590533Y-70735714D01*
X115590533Y-70735714D02*
X115733390Y-70783333D01*
X115733390Y-70783333D02*
X116304819Y-71354761D01*
X116304819Y-71354761D02*
X116304819Y-70735714D01*
X117416666Y-124931009D02*
X117083333Y-124931009D01*
X117083333Y-125454819D02*
X117083333Y-124454819D01*
X117083333Y-124454819D02*
X117559523Y-124454819D01*
X117892857Y-124550057D02*
X117940476Y-124502438D01*
X117940476Y-124502438D02*
X118035714Y-124454819D01*
X118035714Y-124454819D02*
X118273809Y-124454819D01*
X118273809Y-124454819D02*
X118369047Y-124502438D01*
X118369047Y-124502438D02*
X118416666Y-124550057D01*
X118416666Y-124550057D02*
X118464285Y-124645295D01*
X118464285Y-124645295D02*
X118464285Y-124740533D01*
X118464285Y-124740533D02*
X118416666Y-124883390D01*
X118416666Y-124883390D02*
X117845238Y-125454819D01*
X117845238Y-125454819D02*
X118464285Y-125454819D01*
X94257200Y-89083332D02*
X94304819Y-88940475D01*
X94304819Y-88940475D02*
X94304819Y-88702380D01*
X94304819Y-88702380D02*
X94257200Y-88607142D01*
X94257200Y-88607142D02*
X94209580Y-88559523D01*
X94209580Y-88559523D02*
X94114342Y-88511904D01*
X94114342Y-88511904D02*
X94019104Y-88511904D01*
X94019104Y-88511904D02*
X93923866Y-88559523D01*
X93923866Y-88559523D02*
X93876247Y-88607142D01*
X93876247Y-88607142D02*
X93828628Y-88702380D01*
X93828628Y-88702380D02*
X93781009Y-88892856D01*
X93781009Y-88892856D02*
X93733390Y-88988094D01*
X93733390Y-88988094D02*
X93685771Y-89035713D01*
X93685771Y-89035713D02*
X93590533Y-89083332D01*
X93590533Y-89083332D02*
X93495295Y-89083332D01*
X93495295Y-89083332D02*
X93400057Y-89035713D01*
X93400057Y-89035713D02*
X93352438Y-88988094D01*
X93352438Y-88988094D02*
X93304819Y-88892856D01*
X93304819Y-88892856D02*
X93304819Y-88654761D01*
X93304819Y-88654761D02*
X93352438Y-88511904D01*
X93304819Y-88178570D02*
X94304819Y-87940475D01*
X94304819Y-87940475D02*
X93590533Y-87749999D01*
X93590533Y-87749999D02*
X94304819Y-87559523D01*
X94304819Y-87559523D02*
X93304819Y-87321428D01*
X94304819Y-86416666D02*
X94304819Y-86988094D01*
X94304819Y-86702380D02*
X93304819Y-86702380D01*
X93304819Y-86702380D02*
X93447676Y-86797618D01*
X93447676Y-86797618D02*
X93542914Y-86892856D01*
X93542914Y-86892856D02*
X93590533Y-86988094D01*
X102807200Y-89083332D02*
X102854819Y-88940475D01*
X102854819Y-88940475D02*
X102854819Y-88702380D01*
X102854819Y-88702380D02*
X102807200Y-88607142D01*
X102807200Y-88607142D02*
X102759580Y-88559523D01*
X102759580Y-88559523D02*
X102664342Y-88511904D01*
X102664342Y-88511904D02*
X102569104Y-88511904D01*
X102569104Y-88511904D02*
X102473866Y-88559523D01*
X102473866Y-88559523D02*
X102426247Y-88607142D01*
X102426247Y-88607142D02*
X102378628Y-88702380D01*
X102378628Y-88702380D02*
X102331009Y-88892856D01*
X102331009Y-88892856D02*
X102283390Y-88988094D01*
X102283390Y-88988094D02*
X102235771Y-89035713D01*
X102235771Y-89035713D02*
X102140533Y-89083332D01*
X102140533Y-89083332D02*
X102045295Y-89083332D01*
X102045295Y-89083332D02*
X101950057Y-89035713D01*
X101950057Y-89035713D02*
X101902438Y-88988094D01*
X101902438Y-88988094D02*
X101854819Y-88892856D01*
X101854819Y-88892856D02*
X101854819Y-88654761D01*
X101854819Y-88654761D02*
X101902438Y-88511904D01*
X101854819Y-88178570D02*
X102854819Y-87940475D01*
X102854819Y-87940475D02*
X102140533Y-87749999D01*
X102140533Y-87749999D02*
X102854819Y-87559523D01*
X102854819Y-87559523D02*
X101854819Y-87321428D01*
X101950057Y-86988094D02*
X101902438Y-86940475D01*
X101902438Y-86940475D02*
X101854819Y-86845237D01*
X101854819Y-86845237D02*
X101854819Y-86607142D01*
X101854819Y-86607142D02*
X101902438Y-86511904D01*
X101902438Y-86511904D02*
X101950057Y-86464285D01*
X101950057Y-86464285D02*
X102045295Y-86416666D01*
X102045295Y-86416666D02*
X102140533Y-86416666D01*
X102140533Y-86416666D02*
X102283390Y-86464285D01*
X102283390Y-86464285D02*
X102854819Y-87035713D01*
X102854819Y-87035713D02*
X102854819Y-86416666D01*
X136304819Y-72545238D02*
X135828628Y-72878571D01*
X136304819Y-73116666D02*
X135304819Y-73116666D01*
X135304819Y-73116666D02*
X135304819Y-72735714D01*
X135304819Y-72735714D02*
X135352438Y-72640476D01*
X135352438Y-72640476D02*
X135400057Y-72592857D01*
X135400057Y-72592857D02*
X135495295Y-72545238D01*
X135495295Y-72545238D02*
X135638152Y-72545238D01*
X135638152Y-72545238D02*
X135733390Y-72592857D01*
X135733390Y-72592857D02*
X135781009Y-72640476D01*
X135781009Y-72640476D02*
X135828628Y-72735714D01*
X135828628Y-72735714D02*
X135828628Y-73116666D01*
X135304819Y-72259523D02*
X136304819Y-71926190D01*
X136304819Y-71926190D02*
X135304819Y-71592857D01*
X135304819Y-71354761D02*
X135304819Y-70735714D01*
X135304819Y-70735714D02*
X135685771Y-71069047D01*
X135685771Y-71069047D02*
X135685771Y-70926190D01*
X135685771Y-70926190D02*
X135733390Y-70830952D01*
X135733390Y-70830952D02*
X135781009Y-70783333D01*
X135781009Y-70783333D02*
X135876247Y-70735714D01*
X135876247Y-70735714D02*
X136114342Y-70735714D01*
X136114342Y-70735714D02*
X136209580Y-70783333D01*
X136209580Y-70783333D02*
X136257200Y-70830952D01*
X136257200Y-70830952D02*
X136304819Y-70926190D01*
X136304819Y-70926190D02*
X136304819Y-71211904D01*
X136304819Y-71211904D02*
X136257200Y-71307142D01*
X136257200Y-71307142D02*
X136209580Y-71354761D01*
X94204819Y-51545238D02*
X93728628Y-51878571D01*
X94204819Y-52116666D02*
X93204819Y-52116666D01*
X93204819Y-52116666D02*
X93204819Y-51735714D01*
X93204819Y-51735714D02*
X93252438Y-51640476D01*
X93252438Y-51640476D02*
X93300057Y-51592857D01*
X93300057Y-51592857D02*
X93395295Y-51545238D01*
X93395295Y-51545238D02*
X93538152Y-51545238D01*
X93538152Y-51545238D02*
X93633390Y-51592857D01*
X93633390Y-51592857D02*
X93681009Y-51640476D01*
X93681009Y-51640476D02*
X93728628Y-51735714D01*
X93728628Y-51735714D02*
X93728628Y-52116666D01*
X93204819Y-51259523D02*
X94204819Y-50926190D01*
X94204819Y-50926190D02*
X93204819Y-50592857D01*
X93538152Y-49830952D02*
X94204819Y-49830952D01*
X93157200Y-50069047D02*
X93871485Y-50307142D01*
X93871485Y-50307142D02*
X93871485Y-49688095D01*
%TO.C,J3*%
D12*
X132050000Y-37670000D02*
X133380000Y-37670000D01*
X132050000Y-39000000D02*
X132050000Y-37670000D01*
X134650000Y-37670000D02*
X142330000Y-37670000D01*
X134650000Y-40330000D02*
X134650000Y-37670000D01*
X134650000Y-40330000D02*
X142330000Y-40330000D01*
X142330000Y-40330000D02*
X142330000Y-37670000D01*
%TO.C,U3*%
X129890000Y-86560000D02*
X129890000Y-91060000D01*
X129890000Y-91060000D02*
X150330000Y-91060000D01*
X150330000Y-86560000D02*
X129890000Y-86560000D01*
X150330000Y-87810000D02*
X150330000Y-86560000D01*
X150330000Y-91060000D02*
X150330000Y-89810000D01*
X129830000Y-83560000D02*
X150390000Y-83560000D01*
X150390000Y-94060000D01*
X129830000Y-94060000D01*
X129830000Y-83560000D01*
X150330000Y-89810000D02*
G75*
G02*
X150330000Y-87810000I0J1000000D01*
G01*
%TO.C,RV1*%
X96379000Y-64880000D02*
X106420000Y-64880000D01*
X96379000Y-68816000D02*
X96379000Y-64880000D01*
X96379000Y-77120000D02*
X96379000Y-73183000D01*
X96379000Y-77120000D02*
X97700000Y-77120000D01*
X100150000Y-77120000D02*
X100530000Y-77120000D01*
X102271000Y-77120000D02*
X103030000Y-77120000D01*
X104770000Y-77120000D02*
X106420000Y-77120000D01*
X106420000Y-68816000D02*
X106420000Y-64880000D01*
X106420000Y-77120000D02*
X106420000Y-73183000D01*
%TO.C,C1*%
X144010000Y-125402000D02*
X144010000Y-124598000D01*
X144050000Y-125633000D02*
X144050000Y-124367000D01*
X144090000Y-125801000D02*
X144090000Y-124199000D01*
X144130000Y-125939000D02*
X144130000Y-124061000D01*
X144170000Y-126058000D02*
X144170000Y-123942000D01*
X144210000Y-126165000D02*
X144210000Y-123835000D01*
X144250000Y-126261000D02*
X144250000Y-123739000D01*
X144290000Y-126350000D02*
X144290000Y-123650000D01*
X144330000Y-126432000D02*
X144330000Y-123568000D01*
X144370000Y-126509000D02*
X144370000Y-123491000D01*
X144410000Y-126581000D02*
X144410000Y-123419000D01*
X144450000Y-126649000D02*
X144450000Y-123351000D01*
X144490000Y-126714000D02*
X144490000Y-123286000D01*
X144530000Y-126775000D02*
X144530000Y-123225000D01*
X144570000Y-126834000D02*
X144570000Y-123166000D01*
X144610000Y-126890000D02*
X144610000Y-123110000D01*
X144650000Y-126943000D02*
X144650000Y-123057000D01*
X144690000Y-126995000D02*
X144690000Y-123005000D01*
X144730000Y-127044000D02*
X144730000Y-122956000D01*
X144770000Y-127091000D02*
X144770000Y-122909000D01*
X144810000Y-127137000D02*
X144810000Y-122863000D01*
X144850000Y-127181000D02*
X144850000Y-122819000D01*
X144890000Y-127223000D02*
X144890000Y-122777000D01*
X144930000Y-127264000D02*
X144930000Y-122736000D01*
X144970000Y-123960000D02*
X144970000Y-122696000D01*
X144970000Y-127304000D02*
X144970000Y-126040000D01*
X145010000Y-123960000D02*
X145010000Y-122658000D01*
X145010000Y-127342000D02*
X145010000Y-126040000D01*
X145050000Y-123960000D02*
X145050000Y-122621000D01*
X145050000Y-127379000D02*
X145050000Y-126040000D01*
X145090000Y-123960000D02*
X145090000Y-122585000D01*
X145090000Y-127415000D02*
X145090000Y-126040000D01*
X145130000Y-123960000D02*
X145130000Y-122550000D01*
X145130000Y-127450000D02*
X145130000Y-126040000D01*
X145170000Y-123960000D02*
X145170000Y-122517000D01*
X145170000Y-127483000D02*
X145170000Y-126040000D01*
X145210000Y-123960000D02*
X145210000Y-122484000D01*
X145210000Y-127516000D02*
X145210000Y-126040000D01*
X145250000Y-123960000D02*
X145250000Y-122453000D01*
X145250000Y-127547000D02*
X145250000Y-126040000D01*
X145290000Y-123960000D02*
X145290000Y-122423000D01*
X145290000Y-127577000D02*
X145290000Y-126040000D01*
X145330000Y-123960000D02*
X145330000Y-122393000D01*
X145330000Y-127607000D02*
X145330000Y-126040000D01*
X145370000Y-123960000D02*
X145370000Y-122364000D01*
X145370000Y-127636000D02*
X145370000Y-126040000D01*
X145410000Y-123960000D02*
X145410000Y-122337000D01*
X145410000Y-127663000D02*
X145410000Y-126040000D01*
X145450000Y-123960000D02*
X145450000Y-122310000D01*
X145450000Y-127690000D02*
X145450000Y-126040000D01*
X145490000Y-123960000D02*
X145490000Y-122284000D01*
X145490000Y-127716000D02*
X145490000Y-126040000D01*
X145530000Y-123960000D02*
X145530000Y-122259000D01*
X145530000Y-127741000D02*
X145530000Y-126040000D01*
X145570000Y-123960000D02*
X145570000Y-122235000D01*
X145570000Y-127765000D02*
X145570000Y-126040000D01*
X145610000Y-123960000D02*
X145610000Y-122211000D01*
X145610000Y-127789000D02*
X145610000Y-126040000D01*
X145650000Y-123960000D02*
X145650000Y-122188000D01*
X145650000Y-127812000D02*
X145650000Y-126040000D01*
X145690000Y-123960000D02*
X145690000Y-122166000D01*
X145690000Y-127834000D02*
X145690000Y-126040000D01*
X145730000Y-123960000D02*
X145730000Y-122145000D01*
X145730000Y-127855000D02*
X145730000Y-126040000D01*
X145770000Y-123960000D02*
X145770000Y-122124000D01*
X145770000Y-127876000D02*
X145770000Y-126040000D01*
X145810000Y-123960000D02*
X145810000Y-122104000D01*
X145810000Y-127896000D02*
X145810000Y-126040000D01*
X145850000Y-123960000D02*
X145850000Y-122085000D01*
X145850000Y-127915000D02*
X145850000Y-126040000D01*
X145890000Y-123960000D02*
X145890000Y-122066000D01*
X145890000Y-127934000D02*
X145890000Y-126040000D01*
X145930000Y-123960000D02*
X145930000Y-122048000D01*
X145930000Y-127952000D02*
X145930000Y-126040000D01*
X145970000Y-123960000D02*
X145970000Y-122031000D01*
X145970000Y-127969000D02*
X145970000Y-126040000D01*
X146010000Y-123960000D02*
X146010000Y-122014000D01*
X146010000Y-127986000D02*
X146010000Y-126040000D01*
X146050000Y-123960000D02*
X146050000Y-121998000D01*
X146050000Y-128002000D02*
X146050000Y-126040000D01*
X146090000Y-123960000D02*
X146090000Y-121983000D01*
X146090000Y-128017000D02*
X146090000Y-126040000D01*
X146130000Y-123960000D02*
X146130000Y-121968000D01*
X146130000Y-128032000D02*
X146130000Y-126040000D01*
X146170000Y-123960000D02*
X146170000Y-121953000D01*
X146170000Y-128047000D02*
X146170000Y-126040000D01*
X146210000Y-123960000D02*
X146210000Y-121940000D01*
X146210000Y-128060000D02*
X146210000Y-126040000D01*
X146250000Y-123960000D02*
X146250000Y-121927000D01*
X146250000Y-128073000D02*
X146250000Y-126040000D01*
X146290000Y-123960000D02*
X146290000Y-121914000D01*
X146290000Y-128086000D02*
X146290000Y-126040000D01*
X146330000Y-123960000D02*
X146330000Y-121902000D01*
X146330000Y-128098000D02*
X146330000Y-126040000D01*
X146370000Y-123960000D02*
X146370000Y-121891000D01*
X146370000Y-128109000D02*
X146370000Y-126040000D01*
X146410000Y-123960000D02*
X146410000Y-121880000D01*
X146410000Y-128120000D02*
X146410000Y-126040000D01*
X146450000Y-123960000D02*
X146450000Y-121869000D01*
X146450000Y-128131000D02*
X146450000Y-126040000D01*
X146490000Y-123960000D02*
X146490000Y-121860000D01*
X146490000Y-128140000D02*
X146490000Y-126040000D01*
X146530000Y-123960000D02*
X146530000Y-121850000D01*
X146530000Y-128150000D02*
X146530000Y-126040000D01*
X146570000Y-123960000D02*
X146570000Y-121841000D01*
X146570000Y-128159000D02*
X146570000Y-126040000D01*
X146610000Y-123960000D02*
X146610000Y-121833000D01*
X146610000Y-128167000D02*
X146610000Y-126040000D01*
X146650000Y-123960000D02*
X146650000Y-121826000D01*
X146650000Y-128174000D02*
X146650000Y-126040000D01*
X146690000Y-123960000D02*
X146690000Y-121818000D01*
X146690000Y-128182000D02*
X146690000Y-126040000D01*
X146730000Y-123960000D02*
X146730000Y-121812000D01*
X146730000Y-128188000D02*
X146730000Y-126040000D01*
X146770000Y-123960000D02*
X146770000Y-121805000D01*
X146770000Y-128195000D02*
X146770000Y-126040000D01*
X146810000Y-123960000D02*
X146810000Y-121800000D01*
X146810000Y-128200000D02*
X146810000Y-126040000D01*
X146850000Y-123960000D02*
X146850000Y-121795000D01*
X146850000Y-128205000D02*
X146850000Y-126040000D01*
X146890000Y-123960000D02*
X146890000Y-121790000D01*
X146890000Y-128210000D02*
X146890000Y-126040000D01*
X146930000Y-123960000D02*
X146930000Y-121786000D01*
X146930000Y-128214000D02*
X146930000Y-126040000D01*
X146970000Y-123960000D02*
X146970000Y-121782000D01*
X146970000Y-128218000D02*
X146970000Y-126040000D01*
X147010000Y-123960000D02*
X147010000Y-121779000D01*
X147010000Y-128221000D02*
X147010000Y-126040000D01*
X147050000Y-128224000D02*
X147050000Y-121776000D01*
X147090000Y-128226000D02*
X147090000Y-121774000D01*
X147130000Y-128228000D02*
X147130000Y-121772000D01*
X147170000Y-128229000D02*
X147170000Y-121771000D01*
X147210000Y-128230000D02*
X147210000Y-121770000D01*
X147250000Y-128230000D02*
X147250000Y-121770000D01*
X150435241Y-127154000D02*
X150435241Y-126524000D01*
X150750241Y-126839000D02*
X150120241Y-126839000D01*
X150520000Y-125000000D02*
G75*
G02*
X143980000Y-125000000I-3270000J0D01*
G01*
X143980000Y-125000000D02*
G75*
G02*
X150520000Y-125000000I3270000J0D01*
G01*
%TO.C,SW4*%
X120500000Y-85500000D02*
X120500000Y-90000000D01*
X123000000Y-91250000D02*
X124500000Y-91250000D01*
X124500000Y-84250000D02*
X123000000Y-84250000D01*
X127000000Y-90000000D02*
X127000000Y-85500000D01*
%TO.C,SW3*%
X111950000Y-85500000D02*
X111950000Y-90000000D01*
X114450000Y-91250000D02*
X115950000Y-91250000D01*
X115950000Y-84250000D02*
X114450000Y-84250000D01*
X118450000Y-90000000D02*
X118450000Y-85500000D01*
%TO.C,RV5*%
X111379000Y-43930000D02*
X121420000Y-43930000D01*
X111379000Y-47866000D02*
X111379000Y-43930000D01*
X111379000Y-56170000D02*
X111379000Y-52233000D01*
X111379000Y-56170000D02*
X112700000Y-56170000D01*
X115150000Y-56170000D02*
X115530000Y-56170000D01*
X117271000Y-56170000D02*
X118030000Y-56170000D01*
X119770000Y-56170000D02*
X121420000Y-56170000D01*
X121420000Y-47866000D02*
X121420000Y-43930000D01*
X121420000Y-56170000D02*
X121420000Y-52233000D01*
%TO.C,R4*%
X133540000Y-122630000D02*
X140080000Y-122630000D01*
X133540000Y-122960000D02*
X133540000Y-122630000D01*
X133540000Y-125040000D02*
X133540000Y-125370000D01*
X133540000Y-125370000D02*
X140080000Y-125370000D01*
X140080000Y-122630000D02*
X140080000Y-122960000D01*
X140080000Y-125370000D02*
X140080000Y-125040000D01*
%TO.C,A1*%
X96852500Y-99000000D02*
X96852500Y-101490000D01*
X96852500Y-101490000D02*
X97766020Y-101490000D01*
X96852500Y-104765000D02*
X96852500Y-101490000D01*
X96852500Y-105100000D02*
X97768500Y-105100000D01*
X96852500Y-112900000D02*
X97768500Y-112900000D01*
X96852500Y-113235000D02*
X96852500Y-104765000D01*
X96852500Y-116510000D02*
X96852500Y-113235000D01*
X96852500Y-116510000D02*
X97766020Y-116510000D01*
X96852500Y-119000000D02*
X96852500Y-116510000D01*
X97272500Y-119579676D02*
X97272500Y-120090000D01*
X97272563Y-98730000D02*
X96915500Y-98730000D01*
X97272563Y-119270000D02*
X96915500Y-119270000D01*
X97766020Y-101490000D02*
X100158980Y-101490000D01*
X97766020Y-116510000D02*
X100158980Y-116510000D01*
X99147300Y-105100000D02*
X101372500Y-105100000D01*
X99147300Y-112900000D02*
X101372500Y-112900000D01*
X99392500Y-98390000D02*
X99812500Y-98390000D01*
X99392500Y-98730000D02*
X99812500Y-98730000D01*
X99392500Y-119270000D02*
X99812500Y-119270000D01*
X99392500Y-119610000D02*
X99392500Y-120090000D01*
X99392500Y-119610000D02*
X99812500Y-119610000D01*
X100158980Y-101490000D02*
X144766020Y-101490000D01*
X100158980Y-116510000D02*
X144766020Y-116510000D01*
X101372500Y-105396090D02*
X101372500Y-105100000D01*
X101372500Y-110246090D02*
X101372500Y-107753910D01*
X101372500Y-112900000D02*
X101372500Y-112603910D01*
X101932500Y-98390000D02*
X102352500Y-98390000D01*
X101932500Y-98730000D02*
X102352500Y-98730000D01*
X101932500Y-119270000D02*
X102352500Y-119270000D01*
X101932500Y-119610000D02*
X102352500Y-119610000D01*
X104472500Y-98390000D02*
X104892500Y-98390000D01*
X104472500Y-98730000D02*
X104892500Y-98730000D01*
X104472500Y-119270000D02*
X104892500Y-119270000D01*
X104472500Y-119610000D02*
X104892500Y-119610000D01*
X107012500Y-98390000D02*
X107432500Y-98390000D01*
X107012500Y-98730000D02*
X107432500Y-98730000D01*
X107012500Y-119270000D02*
X107432500Y-119270000D01*
X107012500Y-119610000D02*
X107432500Y-119610000D01*
X109552500Y-98390000D02*
X109972500Y-98390000D01*
X109552500Y-98730000D02*
X109972500Y-98730000D01*
X109552500Y-119270000D02*
X109972500Y-119270000D01*
X109552500Y-119610000D02*
X109972500Y-119610000D01*
X112092500Y-98390000D02*
X112512500Y-98390000D01*
X112092500Y-98730000D02*
X112512500Y-98730000D01*
X112092500Y-119270000D02*
X112512500Y-119270000D01*
X112092500Y-119610000D02*
X112512500Y-119610000D01*
X114632500Y-98390000D02*
X115052500Y-98390000D01*
X114632500Y-98730000D02*
X115052500Y-98730000D01*
X114632500Y-119270000D02*
X115052500Y-119270000D01*
X114632500Y-119610000D02*
X115052500Y-119610000D01*
X117172500Y-98390000D02*
X117592500Y-98390000D01*
X117172500Y-98730000D02*
X117592500Y-98730000D01*
X117172500Y-119270000D02*
X117592500Y-119270000D01*
X117172500Y-119610000D02*
X117592500Y-119610000D01*
X119712500Y-98390000D02*
X120132500Y-98390000D01*
X119712500Y-98730000D02*
X120132500Y-98730000D01*
X119712500Y-119270000D02*
X120132500Y-119270000D01*
X119712500Y-119610000D02*
X120132500Y-119610000D01*
X122252500Y-98390000D02*
X122672500Y-98390000D01*
X122252500Y-98730000D02*
X122672500Y-98730000D01*
X122252500Y-119270000D02*
X122672500Y-119270000D01*
X122252500Y-119610000D02*
X122672500Y-119610000D01*
X124792500Y-98390000D02*
X125212500Y-98390000D01*
X124792500Y-98730000D02*
X125212500Y-98730000D01*
X124792500Y-119270000D02*
X125212500Y-119270000D01*
X124792500Y-119610000D02*
X125212500Y-119610000D01*
X127332500Y-98390000D02*
X127752500Y-98390000D01*
X127332500Y-98730000D02*
X127752500Y-98730000D01*
X127332500Y-119270000D02*
X127752500Y-119270000D01*
X127332500Y-119610000D02*
X127752500Y-119610000D01*
X129872500Y-98390000D02*
X130292500Y-98390000D01*
X129872500Y-98730000D02*
X130292500Y-98730000D01*
X129872500Y-119270000D02*
X130292500Y-119270000D01*
X129872500Y-119610000D02*
X130292500Y-119610000D01*
X132412500Y-98390000D02*
X132832500Y-98390000D01*
X132412500Y-98730000D02*
X132832500Y-98730000D01*
X132412500Y-119270000D02*
X132832500Y-119270000D01*
X132412500Y-119610000D02*
X132832500Y-119610000D01*
X134952500Y-98390000D02*
X135372500Y-98390000D01*
X134952500Y-98730000D02*
X135372500Y-98730000D01*
X134952500Y-119270000D02*
X135372500Y-119270000D01*
X134952500Y-119610000D02*
X135372500Y-119610000D01*
X137492500Y-98390000D02*
X137912500Y-98390000D01*
X137492500Y-98730000D02*
X137912500Y-98730000D01*
X137492500Y-119270000D02*
X137912500Y-119270000D01*
X137492500Y-119610000D02*
X137912500Y-119610000D01*
X140032500Y-98390000D02*
X140452500Y-98390000D01*
X140032500Y-98730000D02*
X140452500Y-98730000D01*
X140032500Y-119270000D02*
X140452500Y-119270000D01*
X140032500Y-119610000D02*
X140452500Y-119610000D01*
X142572500Y-98390000D02*
X142992500Y-98390000D01*
X142572500Y-98730000D02*
X142992500Y-98730000D01*
X142572500Y-119270000D02*
X142992500Y-119270000D01*
X142572500Y-119610000D02*
X142992500Y-119610000D01*
X144766020Y-101490000D02*
X147158980Y-101490000D01*
X144766020Y-116510000D02*
X147158980Y-116510000D01*
X145112500Y-98390000D02*
X145532500Y-98390000D01*
X145112500Y-98730000D02*
X145532500Y-98730000D01*
X145112500Y-119270000D02*
X145532500Y-119270000D01*
X145112500Y-119610000D02*
X145532500Y-119610000D01*
X147158980Y-101490000D02*
X148072500Y-101490000D01*
X147158980Y-116510000D02*
X148072500Y-116510000D01*
X147652437Y-98730000D02*
X148009500Y-98730000D01*
X147652437Y-119270000D02*
X148009500Y-119270000D01*
X148072500Y-105400000D02*
X148072500Y-99000000D01*
X148072500Y-119000000D02*
X148072500Y-112600000D01*
X96852500Y-99000000D02*
G75*
G02*
X97272563Y-98420324I610000J0D01*
G01*
X97272500Y-119579676D02*
G75*
G02*
X96852500Y-119000000I190051J579692D01*
G01*
X99902500Y-103300000D02*
G75*
G02*
X98022500Y-103300000I-940000J0D01*
G01*
X98022500Y-103300000D02*
G75*
G02*
X99902500Y-103300000I940000J0D01*
G01*
X99902500Y-114700000D02*
G75*
G02*
X98022500Y-114700000I-940000J0D01*
G01*
X98022500Y-114700000D02*
G75*
G02*
X99902500Y-114700000I940000J0D01*
G01*
X146902500Y-103300000D02*
G75*
G02*
X145022500Y-103300000I-940000J0D01*
G01*
X145022500Y-103300000D02*
G75*
G02*
X146902500Y-103300000I940000J0D01*
G01*
X146902500Y-114700000D02*
G75*
G02*
X145022500Y-114700000I-940000J0D01*
G01*
X145022500Y-114700000D02*
G75*
G02*
X146902500Y-114700000I940000J0D01*
G01*
%TO.C,R3*%
X133540000Y-126630000D02*
X140080000Y-126630000D01*
X133540000Y-126960000D02*
X133540000Y-126630000D01*
X133540000Y-129040000D02*
X133540000Y-129370000D01*
X133540000Y-129370000D02*
X140080000Y-129370000D01*
X140080000Y-126630000D02*
X140080000Y-126960000D01*
X140080000Y-129370000D02*
X140080000Y-129040000D01*
%TO.C,D1*%
X135600000Y-133000000D02*
X136510000Y-133000000D01*
X144585000Y-135720000D02*
X144585000Y-130280000D01*
X144705000Y-135720000D02*
X144705000Y-130280000D01*
X144825000Y-135720000D02*
X144825000Y-130280000D01*
X147160000Y-133000000D02*
X146250000Y-133000000D01*
X136510000Y-130280000D02*
X146250000Y-130280000D01*
X146250000Y-135720000D01*
X136510000Y-135720000D01*
X136510000Y-130280000D01*
%TO.C,RV2*%
X118479000Y-64880000D02*
X128520000Y-64880000D01*
X118479000Y-68816000D02*
X118479000Y-64880000D01*
X118479000Y-77120000D02*
X118479000Y-73183000D01*
X118479000Y-77120000D02*
X119800000Y-77120000D01*
X122250000Y-77120000D02*
X122630000Y-77120000D01*
X124371000Y-77120000D02*
X125130000Y-77120000D01*
X126870000Y-77120000D02*
X128520000Y-77120000D01*
X128520000Y-68816000D02*
X128520000Y-64880000D01*
X128520000Y-77120000D02*
X128520000Y-73183000D01*
%TO.C,F2*%
X106390000Y-126090000D02*
X129110000Y-126090000D01*
X106390000Y-129250000D02*
X106390000Y-126090000D01*
X106390000Y-135910000D02*
X106390000Y-132750000D01*
X106390000Y-135910000D02*
X129110000Y-135910000D01*
X129110000Y-129250000D02*
X129110000Y-126090000D01*
X129110000Y-135910000D02*
X129110000Y-132750000D01*
%TO.C,SW1*%
X94850000Y-85500000D02*
X94850000Y-90000000D01*
X97350000Y-91250000D02*
X98850000Y-91250000D01*
X98850000Y-84250000D02*
X97350000Y-84250000D01*
X101350000Y-90000000D02*
X101350000Y-85500000D01*
%TO.C,SW2*%
X103400000Y-85500000D02*
X103400000Y-90000000D01*
X105900000Y-91250000D02*
X107400000Y-91250000D01*
X107400000Y-84250000D02*
X105900000Y-84250000D01*
X109900000Y-90000000D02*
X109900000Y-85500000D01*
%TO.C,RV3*%
X138479000Y-64880000D02*
X148520000Y-64880000D01*
X138479000Y-68816000D02*
X138479000Y-64880000D01*
X138479000Y-77120000D02*
X138479000Y-73183000D01*
X138479000Y-77120000D02*
X139800000Y-77120000D01*
X142250000Y-77120000D02*
X142630000Y-77120000D01*
X144371000Y-77120000D02*
X145130000Y-77120000D01*
X146870000Y-77120000D02*
X148520000Y-77120000D01*
X148520000Y-68816000D02*
X148520000Y-64880000D01*
X148520000Y-77120000D02*
X148520000Y-73183000D01*
%TO.C,RV4*%
X96379000Y-43880000D02*
X106420000Y-43880000D01*
X96379000Y-47816000D02*
X96379000Y-43880000D01*
X96379000Y-56120000D02*
X96379000Y-52183000D01*
X96379000Y-56120000D02*
X97700000Y-56120000D01*
X100150000Y-56120000D02*
X100530000Y-56120000D01*
X102271000Y-56120000D02*
X103030000Y-56120000D01*
X104770000Y-56120000D02*
X106420000Y-56120000D01*
X106420000Y-47816000D02*
X106420000Y-43880000D01*
X106420000Y-56120000D02*
X106420000Y-52183000D01*
%TD*%
M02*
