M48
; DRILL file KiCad 10.0.1 date 2026-06-03T22:35:09
; FORMAT={-:-/ absolute / metric / decimal}
; #@! TF.CreationDate,2026-06-03T22:35:09+02:00
; #@! TF.GenerationSoftware,Kicad,Pcbnew,10.0.1
; #@! TF.FileFunction,Plated,1,2,PTH
FMAT,2
METRIC
; #@! TA.AperFunction,Plated,PTH,ViaDrill
T1C0.300
; #@! TA.AperFunction,Plated,PTH,ViaDrill
T2C0.400
; #@! TA.AperFunction,Plated,PTH,ViaDrill
T3C0.500
; #@! TA.AperFunction,Plated,PTH,ComponentDrill
T4C0.750
; #@! TA.AperFunction,Plated,PTH,ComponentDrill
T5C0.800
; #@! TA.AperFunction,Plated,PTH,ViaDrill
T6C1.000
; #@! TA.AperFunction,Plated,PTH,ComponentDrill
T7C1.000
; #@! TA.AperFunction,Plated,PTH,ComponentDrill
T8C1.100
; #@! TA.AperFunction,Plated,PTH,ViaDrill
T9C1.300
; #@! TA.AperFunction,Plated,PTH,ComponentDrill
T10C1.300
; #@! TA.AperFunction,Plated,PTH,ComponentDrill
T11C1.600
; #@! TA.AperFunction,Plated,PTH,ComponentDrill
T12C1.800
%
G90
G05
T1
X130.0Y-82.0
X149.0Y-95.0
T2
X152.0Y-92.0
T3
X130.0Y-39.0
X137.0Y-113.0
X146.0Y-81.8
X150.0Y-118.0
T4
X95.55Y-124.0
X95.55Y-126.0
T5
X131.22Y-85.0
X131.22Y-92.62
X133.0Y-124.0
X133.0Y-128.0
X133.76Y-85.0
X133.76Y-92.62
X136.3Y-85.0
X136.3Y-92.62
X138.84Y-85.0
X138.84Y-92.62
X140.62Y-124.0
X140.62Y-128.0
X141.38Y-85.0
X141.38Y-92.62
X143.92Y-85.0
X143.92Y-92.62
X146.0Y-125.0
X146.46Y-85.0
X146.46Y-92.62
X148.5Y-125.0
X149.0Y-85.0
X149.0Y-92.62
T6
X124.0Y-81.0
T7
X98.332Y-100.11
X98.332Y-117.89
X98.9Y-57.0
X98.9Y-78.0
X100.873Y-100.11
X100.873Y-117.89
X101.4Y-57.0
X101.4Y-78.0
X103.412Y-100.11
X103.412Y-117.89
X103.9Y-57.0
X103.9Y-78.0
X104.92Y-94.5
X105.953Y-100.11
X105.953Y-117.89
X107.46Y-94.5
X108.492Y-100.11
X108.492Y-117.89
X110.0Y-94.5
X111.032Y-100.11
X111.032Y-117.89
X112.54Y-94.5
X113.572Y-100.11
X113.572Y-117.89
X113.9Y-57.05
X115.08Y-94.5
X116.112Y-100.11
X116.112Y-117.89
X116.4Y-57.05
X117.62Y-94.5
X118.652Y-100.11
X118.652Y-117.89
X118.9Y-57.05
X121.0Y-78.0
X121.192Y-100.11
X121.192Y-117.89
X123.5Y-78.0
X123.732Y-100.11
X123.732Y-117.89
X126.0Y-78.0
X126.272Y-100.11
X126.272Y-117.89
X128.812Y-100.11
X128.812Y-117.89
X131.352Y-100.11
X131.352Y-117.89
X133.38Y-39.0
X133.892Y-100.11
X133.892Y-117.89
X135.92Y-39.0
X136.433Y-100.11
X136.433Y-117.89
X138.46Y-39.0
X138.972Y-100.11
X138.972Y-117.89
X141.0Y-39.0
X141.0Y-78.0
X141.512Y-100.11
X141.512Y-117.89
X143.5Y-78.0
X144.052Y-100.11
X144.052Y-117.89
X146.0Y-78.0
X146.593Y-100.11
X146.593Y-117.89
X151.0Y-129.0
T8
X95.85Y-84.5
X95.85Y-91.0
X100.35Y-84.5
X100.35Y-91.0
X104.4Y-84.5
X104.4Y-91.0
X108.9Y-84.5
X108.9Y-91.0
X112.95Y-84.5
X112.95Y-91.0
X117.45Y-84.5
X117.45Y-91.0
X121.5Y-84.5
X121.5Y-91.0
X126.0Y-84.5
X126.0Y-91.0
T9
X99.2Y-67.0
T10
X106.5Y-131.0
X129.0Y-131.0
T11
X133.76Y-133.0
X149.0Y-133.0
T12
X97.0Y-50.15G85X97.0Y-49.85
G05
X97.0Y-71.15G85X97.0Y-70.85
G05
X105.8Y-50.15G85X105.8Y-49.85
G05
X105.8Y-71.15G85X105.8Y-70.85
G05
X112.0Y-50.2G85X112.0Y-49.9
G05
X119.1Y-71.15G85X119.1Y-70.85
G05
X120.8Y-50.2G85X120.8Y-49.9
G05
X127.9Y-71.15G85X127.9Y-70.85
G05
X139.1Y-71.15G85X139.1Y-70.85
G05
X147.9Y-71.15G85X147.9Y-70.85
G05
M30
