%TF.GenerationSoftware,KiCad,Pcbnew,10.0.1*%
%TF.CreationDate,2026-06-03T22:35:13+02:00*%
%TF.ProjectId,StatisSynthPcb,53746174-6973-4537-996e-74685063622e,rev?*%
%TF.SameCoordinates,Original*%
%TF.FileFunction,Soldermask,Top*%
%TF.FilePolarity,Negative*%
%FSLAX46Y46*%
G04 Gerber Fmt 4.6, Leading zero omitted, Abs format (unit mm)*
G04 Created by KiCad (PCBNEW 10.0.1) date 2026-06-03 22:35:13*
%MOMM*%
%LPD*%
G01*
G04 APERTURE LIST*
G04 Aperture macros list*
%AMRoundRect*
0 Rectangle with rounded corners*
0 $1 Rounding radius*
0 $2 $3 $4 $5 $6 $7 $8 $9 X,Y pos of 4 corners*
0 Add a 4 corners polygon primitive as box body*
4,1,4,$2,$3,$4,$5,$6,$7,$8,$9,$2,$3,0*
0 Add four circle primitives for the rounded corners*
1,1,$1+$1,$2,$3*
1,1,$1+$1,$4,$5*
1,1,$1+$1,$6,$7*
1,1,$1+$1,$8,$9*
0 Add four rect primitives between the rounded corners*
20,1,$1+$1,$2,$3,$4,$5,0*
20,1,$1+$1,$4,$5,$6,$7,0*
20,1,$1+$1,$6,$7,$8,$9,0*
20,1,$1+$1,$8,$9,$2,$3,0*%
%AMFreePoly0*
4,1,37,0.000000,0.796148,0.078414,0.796148,0.232228,0.765552,0.377117,0.705537,0.507515,0.618408,0.618408,0.507515,0.705537,0.377117,0.765552,0.232228,0.796148,0.078414,0.796148,-0.078414,0.765552,-0.232228,0.705537,-0.377117,0.618408,-0.507515,0.507515,-0.618408,0.377117,-0.705537,0.232228,-0.765552,0.078414,-0.796148,0.000000,-0.796148,0.000000,-0.800000,-2.200000,-0.800000,
-2.203843,-0.796157,-2.239018,-0.796157,-2.311114,-0.766294,-2.366294,-0.711114,-2.396157,-0.639018,-2.396157,-0.603843,-2.400000,-0.600000,-2.400000,0.600000,-2.396157,0.603843,-2.396157,0.639018,-2.366294,0.711114,-2.311114,0.766294,-2.239018,0.796157,-2.203843,0.796157,-2.200000,0.800000,0.000000,0.800000,0.000000,0.796148,0.000000,0.796148,$1*%
%AMFreePoly1*
4,1,37,0.603843,0.796157,0.639018,0.796157,0.711114,0.766294,0.766294,0.711114,0.796157,0.639018,0.796157,0.603843,0.800000,0.600000,0.800000,-0.600000,0.796157,-0.603843,0.796157,-0.639018,0.766294,-0.711114,0.711114,-0.766294,0.639018,-0.796157,0.603843,-0.796157,0.600000,-0.800000,-1.600000,-0.800000,-1.600000,-0.796148,-1.678414,-0.796148,-1.832228,-0.765552,-1.977117,-0.705537,
-2.107515,-0.618408,-2.218408,-0.507515,-2.305537,-0.377117,-2.365552,-0.232228,-2.396148,-0.078414,-2.396148,0.078414,-2.365552,0.232228,-2.305537,0.377117,-2.218408,0.507515,-2.107515,0.618408,-1.977117,0.705537,-1.832228,0.765552,-1.678414,0.796148,-1.600000,0.796148,-1.600000,0.800000,0.600000,0.800000,0.603843,0.796157,0.603843,0.796157,$1*%
%AMFreePoly2*
4,1,37,0.603843,0.796157,0.639018,0.796157,0.711114,0.766294,0.766294,0.711114,0.796157,0.639018,0.796157,0.603843,0.800000,0.600000,0.800000,-0.600000,0.796157,-0.603843,0.796157,-0.639018,0.766294,-0.711114,0.711114,-0.766294,0.639018,-0.796157,0.603843,-0.796157,0.600000,-0.800000,0.000000,-0.800000,0.000000,-0.796148,-0.078414,-0.796148,-0.232228,-0.765552,-0.377117,-0.705537,
-0.507515,-0.618408,-0.618408,-0.507515,-0.705537,-0.377117,-0.765552,-0.232228,-0.796148,-0.078414,-0.796148,0.078414,-0.765552,0.232228,-0.705537,0.377117,-0.618408,0.507515,-0.507515,0.618408,-0.377117,0.705537,-0.232228,0.765552,-0.078414,0.796148,0.000000,0.796148,0.000000,0.800000,0.600000,0.800000,0.603843,0.796157,0.603843,0.796157,$1*%
%AMFreePoly3*
4,1,37,1.600000,0.796148,1.678414,0.796148,1.832228,0.765552,1.977117,0.705537,2.107515,0.618408,2.218408,0.507515,2.305537,0.377117,2.365552,0.232228,2.396148,0.078414,2.396148,-0.078414,2.365552,-0.232228,2.305537,-0.377117,2.218408,-0.507515,2.107515,-0.618408,1.977117,-0.705537,1.832228,-0.765552,1.678414,-0.796148,1.600000,-0.796148,1.600000,-0.800000,-0.600000,-0.800000,
-0.603843,-0.796157,-0.639018,-0.796157,-0.711114,-0.766294,-0.766294,-0.711114,-0.796157,-0.639018,-0.796157,-0.603843,-0.800000,-0.600000,-0.800000,0.600000,-0.796157,0.603843,-0.796157,0.639018,-0.766294,0.711114,-0.711114,0.766294,-0.639018,0.796157,-0.603843,0.796157,-0.600000,0.800000,1.600000,0.800000,1.600000,0.796148,1.600000,0.796148,$1*%
%AMFreePoly4*
4,1,37,0.000000,0.796148,0.078414,0.796148,0.232228,0.765552,0.377117,0.705537,0.507515,0.618408,0.618408,0.507515,0.705537,0.377117,0.765552,0.232228,0.796148,0.078414,0.796148,-0.078414,0.765552,-0.232228,0.705537,-0.377117,0.618408,-0.507515,0.507515,-0.618408,0.377117,-0.705537,0.232228,-0.765552,0.078414,-0.796148,0.000000,-0.796148,0.000000,-0.800000,-0.600000,-0.800000,
-0.603843,-0.796157,-0.639018,-0.796157,-0.711114,-0.766294,-0.766294,-0.711114,-0.796157,-0.639018,-0.796157,-0.603843,-0.800000,-0.600000,-0.800000,0.600000,-0.796157,0.603843,-0.796157,0.639018,-0.766294,0.711114,-0.711114,0.766294,-0.639018,0.796157,-0.603843,0.796157,-0.600000,0.800000,0.000000,0.800000,0.000000,0.796148,0.000000,0.796148,$1*%
G04 Aperture macros list end*
%ADD10R,1.700000X1.700000*%
%ADD11C,1.700000*%
%ADD12RoundRect,0.250000X-0.550000X0.950000X-0.550000X-0.950000X0.550000X-0.950000X0.550000X0.950000X0*%
%ADD13O,1.600000X2.400000*%
%ADD14R,1.800000X1.800000*%
%ADD15C,1.800000*%
%ADD16RoundRect,0.750000X0.750000X-1.250000X0.750000X1.250000X-0.750000X1.250000X-0.750000X-1.250000X0*%
%ADD17RoundRect,0.250000X0.550000X0.550000X-0.550000X0.550000X-0.550000X-0.550000X0.550000X-0.550000X0*%
%ADD18C,1.600000*%
%ADD19C,2.000000*%
%ADD20C,2.200000*%
%ADD21C,1.850000*%
%ADD22RoundRect,0.200000X0.600000X-0.600000X0.600000X0.600000X-0.600000X0.600000X-0.600000X-0.600000X0*%
%ADD23FreePoly0,90.000000*%
%ADD24RoundRect,0.800000X0.000010X-0.800000X0.000010X0.800000X-0.000010X0.800000X-0.000010X-0.800000X0*%
%ADD25FreePoly1,90.000000*%
%ADD26FreePoly2,90.000000*%
%ADD27FreePoly3,90.000000*%
%ADD28FreePoly4,90.000000*%
%ADD29RoundRect,0.250000X1.350000X1.350000X-1.350000X1.350000X-1.350000X-1.350000X1.350000X-1.350000X0*%
%ADD30C,3.200000*%
%ADD31C,2.700000*%
%ADD32C,3.000000*%
%ADD33RoundRect,0.250000X-0.625000X0.350000X-0.625000X-0.350000X0.625000X-0.350000X0.625000X0.350000X0*%
%ADD34O,1.750000X1.200000*%
G04 APERTURE END LIST*
D10*
%TO.C,J3*%
X133380000Y-39000000D03*
D11*
X135920000Y-39000000D03*
X138460000Y-39000000D03*
X141000000Y-39000000D03*
%TD*%
D12*
%TO.C,U3*%
X149000000Y-85000000D03*
D13*
X146460000Y-85000000D03*
X143920000Y-85000000D03*
X141380000Y-85000000D03*
X138840000Y-85000000D03*
X136300000Y-85000000D03*
X133760000Y-85000000D03*
X131220000Y-85000000D03*
X131220000Y-92620000D03*
X133760000Y-92620000D03*
X136300000Y-92620000D03*
X138840000Y-92620000D03*
X141380000Y-92620000D03*
X143920000Y-92620000D03*
X146460000Y-92620000D03*
X149000000Y-92620000D03*
%TD*%
D14*
%TO.C,RV1*%
X98900000Y-78000000D03*
D15*
X101400000Y-78000000D03*
X103900000Y-78000000D03*
D16*
X97000000Y-71000000D03*
X105800000Y-71000000D03*
%TD*%
D17*
%TO.C,C1*%
X148500000Y-125000000D03*
D18*
X146000000Y-125000000D03*
%TD*%
D19*
%TO.C,SW4*%
X121500000Y-91000000D03*
X121500000Y-84500000D03*
X126000000Y-91000000D03*
X126000000Y-84500000D03*
%TD*%
%TO.C,SW3*%
X112950000Y-91000000D03*
X112950000Y-84500000D03*
X117450000Y-91000000D03*
X117450000Y-84500000D03*
%TD*%
D14*
%TO.C,RV5*%
X113900000Y-57050000D03*
D15*
X116400000Y-57050000D03*
X118900000Y-57050000D03*
D16*
X112000000Y-50050000D03*
X120800000Y-50050000D03*
%TD*%
D18*
%TO.C,R4*%
X133000000Y-124000000D03*
X140620000Y-124000000D03*
%TD*%
D20*
%TO.C,A1*%
X98462500Y-111725000D03*
D21*
X101492500Y-111425000D03*
X101492500Y-106575000D03*
D20*
X98462500Y-106275000D03*
D22*
X98332500Y-117890000D03*
D23*
X98332500Y-117890000D03*
D18*
X100872500Y-117890000D03*
D24*
X100872500Y-118690000D03*
D25*
X103412500Y-117890000D03*
D26*
X103412500Y-117890000D03*
D18*
X105952500Y-117890000D03*
D24*
X105952500Y-118690000D03*
D18*
X108492500Y-117890000D03*
D24*
X108492500Y-118690000D03*
D18*
X111032500Y-117890000D03*
D24*
X111032500Y-118690000D03*
D18*
X113572500Y-117890000D03*
D24*
X113572500Y-118690000D03*
D25*
X116112500Y-117890000D03*
D26*
X116112500Y-117890000D03*
D18*
X118652500Y-117890000D03*
D24*
X118652500Y-118690000D03*
D18*
X121192500Y-117890000D03*
D24*
X121192500Y-118690000D03*
D18*
X123732500Y-117890000D03*
D24*
X123732500Y-118690000D03*
D18*
X126272500Y-117890000D03*
D24*
X126272500Y-118690000D03*
D25*
X128812500Y-117890000D03*
D26*
X128812500Y-117890000D03*
D18*
X131352500Y-117890000D03*
D24*
X131352500Y-118690000D03*
D18*
X133892500Y-117890000D03*
D24*
X133892500Y-118690000D03*
D18*
X136432500Y-117890000D03*
D24*
X136432500Y-118690000D03*
D18*
X138972500Y-117890000D03*
D24*
X138972500Y-118690000D03*
D25*
X141512500Y-117890000D03*
D26*
X141512500Y-117890000D03*
D18*
X144052500Y-117890000D03*
D24*
X144052500Y-118690000D03*
D18*
X146592500Y-117890000D03*
D24*
X146592500Y-118690000D03*
D18*
X146592500Y-100110000D03*
D24*
X146592500Y-99310000D03*
D18*
X144052500Y-100110000D03*
D24*
X144052500Y-99310000D03*
D27*
X141512500Y-100110000D03*
D28*
X141512500Y-100110000D03*
D18*
X138972500Y-100110000D03*
D24*
X138972500Y-99310000D03*
D18*
X136432500Y-100110000D03*
D24*
X136432500Y-99310000D03*
D18*
X133892500Y-100110000D03*
D24*
X133892500Y-99310000D03*
D18*
X131352500Y-100110000D03*
D24*
X131352500Y-99310000D03*
D27*
X128812500Y-100110000D03*
D28*
X128812500Y-100110000D03*
D18*
X126272500Y-100110000D03*
D24*
X126272500Y-99310000D03*
D18*
X123732500Y-100110000D03*
D24*
X123732500Y-99310000D03*
D18*
X121192500Y-100110000D03*
D24*
X121192500Y-99310000D03*
D18*
X118652500Y-100110000D03*
D24*
X118652500Y-99310000D03*
D27*
X116112500Y-100110000D03*
D28*
X116112500Y-100110000D03*
D18*
X113572500Y-100110000D03*
D24*
X113572500Y-99310000D03*
D18*
X111032500Y-100110000D03*
D24*
X111032500Y-99310000D03*
D18*
X108492500Y-100110000D03*
D24*
X108492500Y-99310000D03*
D18*
X105952500Y-100110000D03*
D24*
X105952500Y-99310000D03*
D27*
X103412500Y-100110000D03*
D28*
X103412500Y-100110000D03*
D18*
X100872500Y-100110000D03*
D24*
X100872500Y-99310000D03*
D18*
X98332500Y-100110000D03*
D24*
X98332500Y-99310000D03*
%TD*%
D18*
%TO.C,R3*%
X133000000Y-128000000D03*
X140620000Y-128000000D03*
%TD*%
D29*
%TO.C,D1*%
X149000000Y-133000000D03*
D30*
X133760000Y-133000000D03*
%TD*%
D14*
%TO.C,RV2*%
X121000000Y-78000000D03*
D15*
X123500000Y-78000000D03*
X126000000Y-78000000D03*
D16*
X119100000Y-71000000D03*
X127900000Y-71000000D03*
%TD*%
D31*
%TO.C,F2*%
X117750000Y-131000000D03*
D32*
X106500000Y-131000000D03*
X129000000Y-131000000D03*
%TD*%
D19*
%TO.C,SW1*%
X95850000Y-91000000D03*
X95850000Y-84500000D03*
X100350000Y-91000000D03*
X100350000Y-84500000D03*
%TD*%
%TO.C,SW2*%
X104400000Y-91000000D03*
X104400000Y-84500000D03*
X108900000Y-91000000D03*
X108900000Y-84500000D03*
%TD*%
D14*
%TO.C,RV3*%
X141000000Y-78000000D03*
D15*
X143500000Y-78000000D03*
X146000000Y-78000000D03*
D16*
X139100000Y-71000000D03*
X147900000Y-71000000D03*
%TD*%
D14*
%TO.C,RV4*%
X98900000Y-57000000D03*
D15*
X101400000Y-57000000D03*
X103900000Y-57000000D03*
D16*
X97000000Y-50000000D03*
X105800000Y-50000000D03*
%TD*%
D10*
%TO.C,J4*%
X151000000Y-129000000D03*
%TD*%
D33*
%TO.C,J1*%
X95550000Y-124000000D03*
D34*
X95550000Y-126000000D03*
%TD*%
D10*
%TO.C,J2*%
X104920000Y-94500000D03*
D11*
X107460000Y-94500000D03*
X110000000Y-94500000D03*
X112540000Y-94500000D03*
X115080000Y-94500000D03*
X117620000Y-94500000D03*
%TD*%
M02*
